<svg width="2353" height="302" xmlns="http://www.w3.org/2000/svg" xmlns:svg="http://www.w3.org/2000/svg" enable-background="new 0 0 2353 302" version="1.1" xml:space="preserve">
 <g class="layer" display="inline">
  <title>Layer 1</title>
  <path d="m1,237.47c0.98,-1.7 2.42,-2.78 2.86,-4.18c5.49,-17.68 17.35,-28.97 34.77,-34.44c20.61,-6.47 44.89,0.48 57.99,18.01c6.8,9.08 14.02,18.61 26.11,21.35c18.22,4.13 35.3,3.13 49.31,-11.62c7.45,-7.83 14.87,-15.98 23.53,-22.3c17.19,-12.56 45.13,-11.45 61.52,2.49c5.67,4.82 10.83,10.45 15.35,16.37c7.51,9.83 16.99,14.8 29.32,16.03c12.12,1.22 23.51,-0.08 33.26,-7.36c6.46,-4.83 12.18,-10.86 17.47,-17.01c8.12,-9.42 18,-15.94 29.91,-18.65c15.65,-3.56 30.53,-0.65 43.56,8.91c11.18,8.21 18.52,19.23 21.01,33.05c3.61,20.11 -2.37,37.14 -17.46,50.74c-7.6,6.84 -16.64,11.1 -27,12.17c-2.41,0.24 -4.8,0.8 -7.35,1.59c-1.87,0.38 -3.59,0.38 -5.74,-0.04c-0.72,-0.77 -0.97,-1.41 -1.26,-1.43c-13.79,-0.98 -24.63,-7.58 -33.95,-17.37c-5.15,-5.42 -10.1,-11.27 -16.11,-15.58c-10.95,-7.85 -23.3,-10.58 -36.98,-8.36c-12.4,2.02 -22.48,7.48 -30.05,17.22c-9.25,11.89 -19.69,21.69 -35.35,24.03c-3.26,0.48 -6.48,1.27 -9.72,1.91c-1.39,0 -2.78,0 -4.75,-0.39c-16.63,-0.93 -28.87,-8.84 -39.44,-20.23c-4.66,-5.02 -9.29,-10.27 -14.8,-14.22c-10.78,-7.73 -23.03,-9.42 -36.19,-7.32c-13.33,2.12 -23.27,8.79 -31.58,19.16c-4.42,5.52 -9.75,10.71 -15.66,14.53c-5.88,3.81 -13,5.73 -19.58,8.47c-6.02,0 -12.04,0 -18.68,-0.37c-18.85,-3.6 -31.61,-13.85 -39.36,-30.55c-1.58,-3.4 -3.3,-6.72 -4.96,-10.08c0,-8.02 0,-16.04 0,-24.53z" fill="#1C3664" id="svg_2" opacity="1"/>
  <path d="m2354,290.53c-13.8,0.47 -27.6,0.47 -41.84,0.47c0,-6.3 0,-12.35 0,-17.67c-7.44,4.76 -14.45,10.47 -22.43,14c-7.09,3.14 -15.17,4.6 -22.96,5.47c-8.08,0.9 -16.39,0.83 -24.5,0.08c-23.68,-2.19 -46.88,-14.01 -54.51,-38.7c-5.89,-19.02 -2.68,-36.85 10.66,-51.89c8.91,-10.04 21.07,-14.87 34.12,-17.27c23.27,-4.28 46.8,-2.75 70.25,-3.02c2.29,-0.02 4.58,0 6.85,0c0.61,-21.11 -9.55,-36.45 -30.18,-39.87c-25.83,-4.3 -49.79,1.04 -71.38,16.91c-5.66,-10.25 -11.31,-20.24 -16.62,-30.41c-0.47,-0.89 0.81,-3.53 1.98,-4.31c12.93,-8.58 27.15,-13.96 42.27,-17.4c15.65,-3.57 31.51,-3.63 47.26,-2.72c19.73,1.13 38.06,7.09 52.32,21.72c8.04,8.25 12.99,18.41 15.75,29.63c0.45,1.82 1.48,3.5 2.6,5.35c0.36,0.1 0.36,0.6 -0.01,1c-0.13,2.63 0.12,4.86 0.37,7.1c0,40.35 0,80.71 0,121.53m-50.58,-78.53c-12.99,0 -26,-0.44 -38.97,0.18c-7.18,0.34 -14.4,2.03 -21.39,3.89c-9.47,2.51 -13.31,10.01 -14.05,17.78c-0.93,9.85 3.11,17.4 11.64,21.97c14.13,7.55 29.05,7.34 43.48,1.43c23.14,-9.48 28.68,-22.66 25.18,-45.25c-1.62,0 -3.27,0 -5.89,0z" fill="#1C3664" id="svg_3" opacity="1"/>
  <path d="m230.54,1c8.68,2.75 17.09,4.83 24.31,10.2c11.02,8.2 18.19,18.82 21.04,32.11c3.2,14.96 0.42,29.08 -8.4,41.61c-8.52,12.1 -19.95,19.68 -34.97,22.26c-15.21,2.61 -28.9,-0.75 -40.85,-9.52c-11.4,-8.37 -18.61,-19.89 -20.79,-34.46c-2.87,-19.28 2.96,-35.23 16.88,-48.37c8.05,-7.6 17.82,-11.9 29.07,-13.46c4.53,-0.37 8.88,-0.37 13.71,-0.37z" fill="#F16623" id="svg_4" opacity="1"/>
  <path d="m2354,168.56c-0.25,-1.8 -0.5,-4.03 -0.37,-6.41c0.37,1.89 0.37,3.93 0.37,6.41z" fill="#FFFFFF" id="svg_8" opacity="1"/>
  <path d="m765,115c0,3.91 0,7.34 0,12.06c23.4,-22.8 50.84,-26.65 80.28,-21.24c17.29,3.18 31.41,12.07 41.64,27.55c2.87,-2.8 5.64,-5.65 8.55,-8.33c12.32,-11.36 27.01,-17.84 43.48,-19.97c18.37,-2.38 36.5,-2.23 53.92,5.81c14.82,6.84 25.63,17.47 32.04,32.34c5.56,12.9 7.23,26.59 7.15,40.63c-0.18,35.48 -0.06,70.97 -0.06,106.8c-14.55,0 -28.94,0 -44,0c0,-1.6 0,-3.36 0,-5.11c0,-33.16 0.15,-66.32 -0.09,-99.48c-0.07,-9.96 -2.03,-19.8 -8,-28.1c-6.14,-8.55 -14.5,-13.5 -25.23,-15.15c-8.22,-1.26 -15.86,-0.29 -23.52,2.15c-15.62,4.98 -25.22,15.93 -28.95,31.48c-2.08,8.66 -2.95,17.79 -3.07,26.72c-0.38,27.49 -0.14,54.99 -0.14,82.48c0,1.63 0,3.26 0,5.12c-14.77,0 -29.17,0 -44,0c0,-1.96 0,-3.75 0,-5.54c0,-32.83 0.05,-65.65 -0.03,-98.48c-0.02,-11.46 -2.61,-22.11 -9.85,-31.47c-5.3,-6.85 -12.56,-10.15 -20.42,-12.13c-9.39,-2.36 -18.91,-1.25 -27.93,2c-14.96,5.39 -23.9,16.54 -27.64,31.69c-1.47,5.97 -2,12.3 -2.04,18.47c-0.19,31.65 -0.09,63.31 -0.09,95.33c-14.51,0 -28.91,0 -43.66,0c0,-61.18 0,-122.57 0,-184.3c13.58,0 27.31,0 41.66,0c0,2.65 0,5.42 0,8.67z" fill="#1C3664" id="svg_9" opacity="1"/>
  <path d="m1738.75,289.98c-10.76,1.35 -21.13,4 -31.43,3.75c-21.17,-0.53 -40.83,-6.54 -57.58,-20.42c-17.18,-14.22 -26.97,-32.34 -30.87,-54.19c-4.18,-23.4 -2.44,-46.15 8.35,-67.27c12.77,-24.96 33.47,-40.44 61.28,-45.86c20.37,-3.98 40.46,-3.4 59.59,5.22c6.11,2.75 11.4,7.4 16.9,11.4c1.37,1.01 2.11,2.88 3.14,4.36c0.55,-0.36 1.11,-0.72 1.66,-1.08c0,-30.48 0,-60.96 0,-91.66c14.89,0 29.17,0 43.83,0c0,85.26 0,170.66 0,256.41c-13.82,0 -27.89,0 -42.53,0c0,-6.33 0,-12.86 0,-21.05c-9.72,10.12 -20.32,16.08 -32.34,20.39m31.25,-83.74c-0.33,-7.25 0.1,-14.63 -1.16,-21.71c-2.39,-13.41 -9.08,-24.5 -20.32,-32.69c-12.34,-8.97 -25.89,-12 -40.95,-9.92c-14,1.94 -25.77,8.19 -33.98,19.28c-13.59,18.36 -15.31,38.89 -7.76,60.27c10.85,30.74 46.43,42.17 74.09,29c18.05,-8.6 27.23,-23.88 30.08,-44.23z" fill="#1C3664" id="svg_10" opacity="1"/>
  <path d="m1059,67c0,-11.14 0,-21.78 0,-32.71c14.67,0 29.06,0 43.76,0c0,30.29 0,60.56 0,91.9c1.88,-1.2 3.24,-1.81 4.28,-2.77c14.34,-13.15 31.37,-18.94 50.65,-19.51c18.31,-0.53 35.74,2.15 52,11.03c18.37,10.03 31.22,24.99 39.23,44.12c6.31,15.06 8.1,31.02 6.97,47.15c-1.47,21.02 -8.06,40.19 -22.05,56.56c-14.03,16.42 -31.85,25.69 -52.86,29.15c-7.09,1.17 -14.36,2.17 -21.51,1.93c-17.3,-0.57 -33.78,-4.59 -47.95,-15.14c-3.55,-2.64 -6.2,-6.49 -10.23,-10.82c0,8.47 0,15.47 0,22.79c-14.22,0 -27.95,0 -42.29,0c0,-74.35 0,-148.76 0,-223.68m104.68,74.93c-5.17,0.02 -10.41,-0.48 -15.49,0.17c-16.38,2.09 -28.86,10.59 -37.38,24.6c-8.79,14.45 -10.26,30.29 -6.73,46.46c6.82,31.17 34.94,47.41 63.95,41.58c27.21,-5.46 40.9,-25.69 42.84,-51c1.17,-15.43 -1.8,-30.16 -11.86,-42.71c-8.88,-11.08 -20.25,-17.59 -35.33,-19.1z" fill="#1C3664" id="svg_11" opacity="1"/>
  <path d="m1305.23,263.73c-13.09,-14.72 -21.02,-31.32 -23.33,-50.73c-2.05,-17.21 -0.94,-33.92 5.08,-50.24c3.85,-10.46 9.51,-19.73 16.83,-28.22c13.85,-16.06 31.59,-25.67 51.95,-29.11c20.28,-3.42 40.73,-2.78 60.36,5.5c19.97,8.43 34.82,22.3 44.39,41.41c5.74,11.45 9.44,23.83 9.48,36.93c0.03,7.68 0.01,15.36 0.01,23.46c-48.18,0 -96.26,0 -144.39,0c2.32,18.83 19.7,36.69 40.83,41.27c21.41,4.63 41.43,1.85 59.56,-11.03c2.92,-2.08 5.57,-4.55 8.75,-7.18c7.82,8.95 15.59,17.85 23.55,26.97c-4.73,8 -12.2,12.68 -19.67,17.26c-13.87,8.48 -29.13,11.76 -45.26,13.22c-17.8,1.61 -34.79,-0.66 -51.52,-6.24c-14,-4.66 -26,-12.57 -36.62,-23.27m60.27,-80.73c20.79,0 41.57,0 62.4,0c-2.53,-23.18 -20.02,-41.92 -47.38,-43.83c-27.45,-1.93 -51.04,15.35 -55.35,43.35c0.29,0.15 0.57,0.42 0.86,0.42c12.82,0.03 25.65,0.05 39.47,0.06z" fill="#1C3664" id="svg_12" opacity="1"/>
  <path d="m602.19,182c16.78,0 33.07,0 49.36,0c0.34,-18.37 -6.94,-35.43 -30.06,-39.84c-18.21,-3.48 -36.19,-1.29 -53.22,6.27c-6.44,2.86 -12.41,6.77 -18.68,10.25c-5.09,-9.35 -10.24,-19.03 -15.64,-28.57c-1.5,-2.67 -0.88,-4.33 1.36,-5.83c12.95,-8.61 27.15,-14 42.32,-17.37c15.83,-3.52 31.84,-3.54 47.78,-2.72c18.35,0.94 35.48,6.66 49.34,19.25c11.06,10.05 16.73,23.26 19.28,37.92c3.63,20.92 1.55,42 1.89,63.01c0.35,21.97 0.08,43.95 0.08,66.28c-13.88,0 -27.61,0 -41.76,0c0,-6.22 0,-12.63 0,-20.42c-7.12,9.91 -16.09,15.25 -26.1,18.61c-6.24,2.08 -12.87,3.45 -19.42,4c-8.12,0.67 -16.39,0.75 -24.51,0.05c-22.33,-1.94 -41.68,-10.74 -51.7,-31.5c-13.83,-28.67 -2.44,-62.06 30.23,-73.27c10.05,-3.44 20.47,-5.33 31.2,-5.18c2.58,0.04 5.18,-0.61 8.25,-0.94m29.31,73.07c20.45,-11.93 22.41,-24.12 19.78,-43.07c-14.43,0 -28.9,-0.2 -43.35,0.09c-6.17,0.12 -12.39,0.83 -18.45,2.02c-10.41,2.04 -17.77,10.11 -18.54,18.67c-1.16,12.77 5.75,21.58 16.32,25.3c14.93,5.26 29.41,3.65 44.24,-3.01z" fill="#1C3664" id="svg_13" opacity="1"/>
  <path d="m1860.28,149.7c-4.27,-7.84 -8.32,-15.38 -12.45,-23.06c12.28,-9.38 26.18,-14.69 40.78,-18.69c17.3,-4.73 35.01,-4.93 52.52,-3.68c19.95,1.42 38.68,7.31 52.72,23.07c7.96,8.94 13.28,19.31 15.01,31.08c1.37,9.4 1.98,18.99 2.05,28.5c0.24,32.66 0.09,65.32 0.09,97.98c0,1.82 0,3.64 0,5.78c-13.6,0 -27,0 -40.85,0c0,-6.31 0,-12.7 0,-20.04c-4.14,3.89 -7.32,7.43 -11.04,10.28c-9.37,7.16 -20.42,10.26 -31.85,12.03c-13.28,2.06 -26.53,1.31 -39.52,-2.01c-19.22,-4.92 -34.45,-15.09 -41.77,-34.42c-6.23,-16.47 -3.78,-40.05 9.83,-53.99c11.48,-11.76 25.6,-17.33 41.32,-18.34c21.8,-1.41 43.68,-1.53 65.52,-2.18c1.3,-0.04 2.59,-0.01 3.84,-0.01c2.35,-20.5 -9.67,-36.32 -29.34,-39.83c-20.44,-3.64 -40.38,-1 -58.97,8.86c-4.26,2.26 -8.21,5.13 -12.92,8.1c-1.53,-2.93 -3.14,-6.03 -4.97,-9.43m87.68,104.85c17.82,-11.2 20.9,-19.55 18.66,-41.53c-19.09,0 -38.13,-0.6 -57.11,0.27c-8.21,0.38 -16.25,4.07 -20.56,12.19c-7.25,13.68 -0.42,28.56 15.17,33.32c14.64,4.48 29.31,3.17 43.84,-4.25z" fill="#1C3664" id="svg_14" opacity="1"/>
  <path d="m86.26,138.57c5.66,-21.01 18.69,-34.8 39.2,-40.03c17.35,-4.43 33.93,-1.2 47.66,11.22c4.97,4.49 9.56,9.55 13.63,14.87c10.61,13.88 25.11,17.59 41.41,16.11c13.86,-1.27 24.31,-8.48 33.2,-19.27c9.41,-11.44 20.56,-20.85 35.95,-24.23c29.13,-6.4 58.86,13.39 63.8,42.08c3.14,18.25 -1.07,34.52 -13.79,47.56c-16.1,16.5 -38.7,21 -59.76,11.65c-6.91,-3.07 -12.94,-8.45 -18.8,-13.44c-8.16,-6.95 -14.51,-15.91 -24.67,-20.64c-13.72,-6.36 -42.19,-4.98 -54.2,8.98c-6.23,7.25 -12.82,14.49 -20.37,20.28c-18.05,13.87 -43.26,13.44 -61.59,0.57c-15.63,-10.98 -22.7,-26.6 -22.87,-45.47c-0.03,-3.28 0.68,-6.56 1.2,-10.24z" fill="#89BED8" id="svg_15" opacity="1"/>
  <path d="m2065,188c0,-15.13 0,-29.77 0,-44.85c-10.31,0 -20.38,0 -30.72,0c0,-12.17 0,-23.9 0,-36.07c10.11,0 20.18,0 30.68,0c0,-14.17 0,-27.9 0,-41.85c14.84,0 29.23,0 43.89,0c0,13.81 0,27.42 0,41.48c16.32,0 32.38,0 48.8,0c0,12.16 0,23.89 0,36.06c-15.89,0 -31.95,0 -48.65,0c0,2.19 0,3.95 0,5.71c0,27.32 0.13,54.64 -0.04,81.95c-0.14,20.89 14.78,29.85 32.7,25.56c5.88,-1.41 11.53,-3.81 17.3,-5.76c3.21,8.21 6.57,17.44 10.45,26.45c1.47,3.4 0.89,5.46 -2.01,7.2c-9.32,5.6 -19.41,8.11 -30.27,9.38c-13.04,1.52 -25.42,-0.12 -37.48,-4.35c-19.87,-6.96 -31.4,-21.74 -33.33,-42.21c-1.82,-19.27 -0.99,-38.79 -1.32,-58.7z" fill="#1C3664" id="svg_16" opacity="1"/>
  <path d="m1508.02,106c10.47,0 20.43,0 30.84,0c0,7.98 0,15.69 0,25.07c17.65,-21.57 40.04,-28.09 65.78,-26.99c0,13.93 0,27.81 0,41.7c-20.42,-2.9 -38.96,0.57 -52.88,18.21c-6.53,8.26 -9.61,18.44 -9.68,29.03c-0.22,30.65 -0.08,61.3 -0.08,91.94c0,1.81 0,3.62 0,5.74c-14.97,0 -29.7,0 -44.71,0c0,-61.35 0,-122.72 0,-184.7c3.36,0 6.8,0 10.73,0z" fill="#1C3664" id="svg_17" opacity="1"/>
 </g>
</svg>
