<svg version="1.1" id="Layer_1" xmlns="http://www.w3.org/2000/svg" xmlns:xlink="http://www.w3.org/1999/xlink" x="0px" y="0px" width="100%" viewBox="0 0 2353 302" enable-background="new 0 0 2353 302" xml:space="preserve">
  <path fill="#231F20" stroke="none" d="
M0.999999,238.468414 
	C1.667979,236.838898 2.595745,235.754578 2.964929,234.505188 
	C8.410233,216.077148 24.697813,200.265121 44.004906,196.893478 
	C62.545006,193.655762 78.424583,198.611603 92.198479,210.860992 
	C95.691978,213.967834 98.441261,217.978409 101.236191,221.790970 
	C108.749763,232.040146 118.393028,237.861557 131.345703,239.297974 
	C144.998520,240.812057 157.322754,238.744064 167.701233,229.627899 
	C174.856659,223.342743 181.236069,216.179077 188.033646,209.480438 
	C199.461624,198.218796 213.643417,193.970398 229.153549,195.156342 
	C247.194153,196.535767 260.666962,206.256027 271.005432,220.791565 
	C279.378387,232.563675 290.675140,238.973984 305.395203,239.033951 
	C317.584869,239.083603 329.158081,237.580536 338.273163,228.303192 
	C343.677368,222.802811 349.267914,217.481277 354.565674,211.881622 
	C362.483398,203.512817 371.859406,197.779846 383.162292,195.368515 
	C407.348053,190.208740 434.270966,202.389282 444.037537,227.710632 
	C451.060150,245.917892 449.026428,263.118988 437.914185,278.903931 
	C428.009644,292.973236 414.093201,300.231659 396.724976,301.061768 
	C381.169678,301.805237 368.097931,296.206879 356.781921,286.135925 
	C352.115356,281.982788 348.370544,276.811584 343.871674,272.448639 
	C334.918274,263.765747 324.431305,258.947449 311.577728,258.849609 
	C300.493195,258.765198 290.054779,260.340027 281.153076,267.102753 
	C276.327515,270.768738 271.925842,275.216003 268.104126,279.935333 
	C259.156921,290.983948 248.355942,298.610321 234.105698,301.028839 
	C214.935196,304.282410 198.771896,298.815002 185.324417,284.858124 
	C180.238983,279.580017 175.349533,274.002747 169.666595,269.438568 
	C162.535339,263.711212 154.292725,260.644379 144.800476,259.759064 
	C132.243530,258.587860 120.931580,261.012878 110.885635,268.165741 
	C105.803703,271.784180 101.215195,276.445770 97.375801,281.390564 
	C87.618309,293.957245 75.211761,301.147491 59.154659,302.610596 
	C54.643101,303.000000 50.286201,303.000000 45.344795,302.636780 
	C43.713955,301.852783 42.701054,301.293243 41.616306,301.031921 
	C22.953829,296.535522 10.879478,284.771667 3.997626,267.170776 
	C3.280583,265.336853 2.012447,263.718414 0.999999,262.000000 
	C1.000000,262.000000 1.000000,261.500000 1.336418,261.161194 
	C1.448557,259.881622 1.224277,258.940796 0.999999,258.000000 
	C1.000000,251.645599 1.000000,245.291214 0.999999,238.468414 
z" />
  <path fill="#231F20" stroke="none" d="
M2354.000000,290.531342 
	C2340.196777,291.000000 2326.393311,291.000000 2312.038330,291.000000 
	C2312.038330,284.600830 2312.038330,278.410522 2312.038330,271.213562 
	C2307.785400,274.798126 2304.422119,277.777588 2300.907715,280.566284 
	C2291.866211,287.740692 2281.238281,290.847504 2269.993896,291.935333 
	C2262.946533,292.617157 2255.816162,293.192291 2248.760986,292.900330 
	C2228.550049,292.063812 2210.405029,285.979675 2196.717529,270.155914 
	C2190.442383,262.901428 2187.286133,254.329773 2185.833496,244.758026 
	C2184.391602,235.253998 2185.530762,226.341614 2188.845703,217.554367 
	C2195.357910,200.291168 2208.692627,190.880447 2225.780029,186.027466 
	C2240.157471,181.944092 2254.920166,181.759323 2269.729492,181.961761 
	C2283.014404,182.143341 2296.303467,182.000000 2309.558594,182.000000 
	C2311.183350,159.904312 2297.799072,143.941742 2276.694580,140.900253 
	C2257.666992,138.158096 2239.790039,141.658493 2222.536377,149.282410 
	C2218.307861,151.150925 2214.691162,154.370209 2210.647705,156.717545 
	C2209.731445,157.249329 2207.392090,157.188461 2207.084961,156.635559 
	C2201.603760,146.767654 2196.331787,136.783249 2191.037842,126.811775 
	C2190.899902,126.552177 2191.020264,126.155540 2191.020264,125.606483 
	C2206.908203,113.952599 2224.900635,107.304359 2244.420898,105.114349 
	C2256.178711,103.795227 2268.128418,102.599686 2279.886475,103.251389 
	C2297.250732,104.213837 2314.233154,107.958656 2328.380371,119.141991 
	C2341.283447,129.341644 2348.837646,142.923676 2351.975830,158.995590 
	C2352.536621,161.868057 2352.816650,164.795380 2353.613037,167.848724 
	C2354.000000,208.687561 2354.000000,249.375122 2354.000000,290.531342 
M2272.580078,210.999969 
	C2263.262207,212.262238 2253.905762,213.293060 2244.637695,214.851700 
	C2235.322998,216.418121 2229.566650,226.184952 2228.984375,232.681198 
	C2228.022461,243.414505 2232.778076,251.156738 2241.977295,255.907455 
	C2253.757568,261.991150 2266.260254,261.664276 2278.860352,258.622009 
	C2287.734131,256.479370 2295.316895,251.971268 2301.698486,245.631531 
	C2311.487793,235.906754 2310.711914,223.592163 2309.642822,211.000000 
	C2297.480469,211.000000 2285.520752,211.000000 2272.580078,210.999969 
z" />
  <path fill="#231F20" stroke="none" d="
M233.531464,1.000000 
	C241.650009,4.815796 249.613617,8.119501 256.876495,12.567454 
	C267.761383,19.233656 272.944702,30.310425 275.798004,42.089233 
	C278.913300,54.949673 277.234436,67.877472 270.716064,79.448822 
	C261.041565,96.622963 246.244247,106.039360 226.152451,107.087303 
	C209.785477,107.940964 195.711975,102.745644 184.764175,91.029739 
	C166.806519,71.812195 164.897430,45.680157 179.368698,23.489388 
	C187.083221,11.659662 198.653671,4.452771 212.868546,1.371707 
	C219.687637,1.000000 226.375290,1.000000 233.531464,1.000000 
z" />
  <path fill="#FFFFFF" stroke="none" d="
M0.999999,262.468658 
	C2.012447,263.718414 3.280583,265.336853 3.997626,267.170776 
	C10.879478,284.771667 22.953829,296.535522 41.616306,301.031921 
	C42.701054,301.293243 43.713955,301.852783 44.880142,302.636780 
	C30.409239,303.000000 15.818477,303.000000 1.000000,303.000000 
	C1.000000,289.646637 1.000000,276.291962 0.999999,262.468658 
z" />
  <path fill="#FFFFFF" stroke="none" d="
M0.999999,258.375000 
	C1.224277,258.940796 1.448557,259.881622 1.336418,260.911194 
	C1.000000,260.250000 1.000000,259.500000 0.999999,258.375000 
z" />
  <path fill="#231F20" stroke="none" d="
M860.116150,291.000000 
	C858.187073,291.000000 856.745850,291.000000 855.000000,291.000000 
	C855.000000,288.690521 855.000000,286.890076 855.000000,285.089600 
	C855.000000,250.931580 855.331604,216.768555 854.816284,182.618317 
	C854.640930,171.001266 851.818848,159.287460 841.902466,151.741394 
	C836.304138,147.481232 829.479004,143.533951 822.713928,142.409546 
	C812.472229,140.707306 801.784424,141.452728 792.041016,146.442276 
	C777.489990,153.893692 769.976685,166.455200 768.208191,182.055832 
	C766.833313,194.184189 767.123291,206.523727 767.044739,218.771790 
	C766.892029,242.597275 767.000000,266.424408 767.000000,290.625397 
	C752.532043,290.625397 738.130127,290.625397 723.363403,290.625397 
	C723.363403,229.180496 723.363403,167.455643 723.363403,105.365234 
	C736.818176,105.365234 750.553955,105.365234 764.829224,105.365234 
	C764.829224,111.629677 764.829224,118.168808 764.829224,126.356003 
	C783.158936,108.605698 804.343933,102.279388 827.953674,103.006584 
	C851.907593,103.744370 872.256287,111.848206 886.622742,132.140381 
	C891.846008,127.683151 896.635986,122.913895 902.085754,119.083244 
	C914.443542,110.396889 928.109131,105.339279 943.370300,103.812332 
	C958.260559,102.322495 972.582642,103.160713 986.838562,107.884987 
	C1007.027588,114.575455 1019.909912,128.389160 1026.892212,147.973694 
	C1030.572510,158.296707 1032.095215,169.073853 1032.051392,180.120148 
	C1031.912598,215.110748 1032.000000,250.102234 1032.000000,285.093384 
	C1032.000000,286.896912 1032.000000,288.700409 1032.000000,290.745544 
	C1017.287598,290.745544 1002.888123,290.745544 988.000000,290.745544 
	C988.000000,288.893860 988.000000,287.115570 988.000000,285.337250 
	C988.000000,252.012344 988.100098,218.686966 987.935547,185.362869 
	C987.889465,176.037949 985.577209,167.044632 980.932129,158.910339 
	C975.110596,148.715744 965.678650,143.349686 954.374695,142.164352 
	C942.572632,140.926758 930.899292,142.017197 920.586548,149.072021 
	C909.474182,156.673798 903.068115,167.439667 901.182007,180.414169 
	C899.626099,191.117371 899.210083,202.047684 899.091187,212.886154 
	C898.808228,238.698395 899.000000,264.515839 899.000000,291.000000 
	C886.105957,291.000000 873.354980,291.000000 860.116150,291.000000 
z" />
  <path fill="#231F20" stroke="none" d="
M1619.001709,175.131592 
	C1621.834717,162.314316 1626.540649,150.805573 1633.915283,140.339874 
	C1647.539551,121.004807 1666.283325,109.649284 1689.133179,105.168091 
	C1697.761963,103.475899 1706.785889,102.877792 1715.584106,103.167328 
	C1732.921143,103.737862 1749.136353,108.252579 1762.600464,120.052444 
	C1764.648071,121.846962 1766.912842,123.393723 1769.774902,125.590530 
	C1769.774902,94.419418 1769.774902,63.944733 1769.774902,33.237198 
	C1784.745728,33.237198 1799.143066,33.237198 1813.770752,33.237198 
	C1813.770752,119.073410 1813.770752,204.781830 1813.770752,290.745209 
	C1799.623535,290.745209 1785.559204,290.745209 1771.072998,290.745209 
	C1771.072998,283.634705 1771.072998,276.581573 1771.072998,270.010559 
	C1764.428345,274.696411 1758.061768,279.669067 1751.229614,283.887787 
	C1741.684082,289.781860 1730.759399,292.021301 1719.828613,292.861450 
	C1693.751099,294.865845 1669.509033,289.091888 1648.961670,272.277924 
	C1632.790405,259.044769 1622.949951,241.443481 1619.224854,221.010849 
	C1617.292725,210.411926 1617.408691,199.399139 1617.127808,188.559647 
	C1617.016113,184.248596 1618.333374,179.900497 1619.001709,175.131592 
M1663.935669,180.461472 
	C1660.831299,191.090302 1660.682495,201.953415 1663.152222,212.556503 
	C1666.558228,227.179016 1673.907227,239.274979 1687.442993,247.228027 
	C1699.547729,254.340286 1712.157227,256.227631 1725.850586,254.079651 
	C1740.273926,251.817108 1751.503906,244.538498 1759.912842,233.026566 
	C1768.202393,221.678238 1770.665039,208.601364 1770.073853,194.660995 
	C1769.340454,177.363785 1763.301025,162.851105 1749.483398,151.983429 
	C1734.770386,140.411591 1718.144531,138.284958 1700.581787,142.944031 
	C1681.454468,148.018158 1669.572021,160.788879 1663.935669,180.461472 
z" />
  <path fill="#231F20" stroke="none" d="
M1159.049561,293.000000 
	C1136.522217,292.540405 1117.233643,285.455719 1101.207397,268.691559 
	C1101.207397,276.395782 1101.207397,283.415924 1101.207397,290.713806 
	C1087.017700,290.713806 1073.282715,290.713806 1059.272949,290.713806 
	C1059.272949,204.993073 1059.272949,119.263542 1059.272949,33.266857 
	C1073.688721,33.266857 1088.089966,33.266857 1102.830444,33.266857 
	C1102.830444,63.743565 1102.830444,94.174248 1102.830444,125.697433 
	C1106.146729,123.147583 1108.802246,121.216660 1111.336670,119.137962 
	C1122.306030,110.141205 1135.076538,105.856422 1148.974487,103.918320 
	C1164.669800,101.729599 1179.989746,103.079758 1194.911987,108.022606 
	C1225.359375,118.107979 1244.515747,139.440445 1252.627563,169.939285 
	C1255.695557,181.473892 1256.366577,194.087921 1255.715454,206.078781 
	C1254.315918,231.854553 1244.626099,254.546799 1224.671631,271.616272 
	C1210.883301,283.411133 1194.563477,290.327332 1176.291626,291.975494 
	C1170.722290,292.477875 1165.124634,292.667267 1159.049561,293.000000 
M1146.562744,254.000565 
	C1153.223022,254.002548 1159.939697,254.563980 1166.532715,253.898926 
	C1184.469116,252.089645 1196.670288,241.428711 1204.765747,226.270462 
	C1211.294556,214.045822 1212.318359,200.607178 1210.076172,186.826950 
	C1207.561157,171.370331 1200.653931,158.953156 1187.609863,149.895142 
	C1174.541016,140.819809 1160.227173,139.256607 1145.147095,142.041885 
	C1126.967285,145.399673 1114.250977,156.219650 1107.214722,172.904984 
	C1102.057739,185.133896 1101.241821,198.133514 1103.870117,211.474106 
	C1108.141113,233.152771 1123.971924,249.708694 1146.562744,254.000565 
z" />
  <path fill="#231F20" stroke="none" d="
M1307.752197,129.747345 
	C1321.678589,116.341026 1337.714844,108.170174 1356.553101,104.867340 
	C1380.124023,100.734741 1402.747192,102.821655 1423.917114,114.095413 
	C1448.117554,126.983040 1462.635742,147.491516 1467.906250,174.322937 
	C1469.535278,182.616425 1470.267700,191.118973 1470.880737,199.564270 
	C1471.160767,203.423935 1470.155884,207.376862 1469.687744,211.715363 
	C1421.847656,211.715363 1373.778198,211.715363 1325.654419,211.715363 
	C1328.357056,231.597687 1343.141602,247.314194 1363.757935,252.692215 
	C1381.796265,257.397797 1400.093140,256.883820 1417.075684,247.867355 
	C1423.337891,244.542603 1428.890625,239.881363 1435.112671,235.591354 
	C1442.151978,243.597519 1449.778320,252.116791 1457.104736,260.886566 
	C1457.714111,261.615967 1456.781494,264.480255 1455.750000,265.604462 
	C1443.958252,278.455231 1429.073120,285.865906 1412.330078,290.023438 
	C1399.234253,293.275299 1385.872192,293.855469 1372.604492,292.854767 
	C1344.676392,290.748383 1320.201050,280.595306 1301.524780,258.948914 
	C1291.851685,247.737366 1285.662964,234.485901 1283.211426,219.993347 
	C1281.466675,209.678574 1280.622681,198.973618 1281.231812,188.551208 
	C1282.286865,170.496979 1288.400635,153.849319 1299.338379,139.235458 
	C1301.792114,135.957031 1304.766235,133.067993 1307.752197,129.747345 
M1410.498657,182.000000 
	C1416.293213,182.000000 1422.087769,182.000000 1427.922729,182.000000 
	C1425.370605,159.571060 1406.919434,141.225037 1383.973999,139.028732 
	C1349.530884,135.731918 1328.882080,157.352844 1325.185303,181.625015 
	C1325.495117,181.739746 1325.804688,181.954666 1326.114624,181.954956 
	C1353.909546,181.980591 1381.704346,181.989731 1410.498657,182.000000 
z" />
  <path fill="#231F20" stroke="none" d="
M575.091064,291.001343 
	C566.407471,287.478058 557.578430,284.895416 550.038269,280.229797 
	C537.393005,272.405334 530.080078,260.674438 527.841675,245.528137 
	C525.654663,230.729370 528.222473,217.273926 537.186951,205.509583 
	C545.809998,194.193314 557.828369,187.569763 571.739197,185.133942 
	C581.364136,183.448547 591.189148,182.408508 600.954529,182.131714 
	C617.750183,181.655624 634.569153,182.000000 651.362671,182.000000 
	C652.614014,163.739349 644.656738,146.898300 624.111694,142.195541 
	C598.301697,136.287674 574.153870,141.384445 552.531799,157.023193 
	C550.463562,158.519104 549.652466,158.238113 548.516357,156.081009 
	C543.856079,147.232590 539.035278,138.468674 534.266052,129.677719 
	C532.898987,127.157791 532.481628,125.643227 535.742371,123.476112 
	C551.132324,113.247635 567.974426,107.137367 586.187134,105.112793 
	C597.784180,103.823616 609.536987,102.798347 621.166443,103.201256 
	C639.040100,103.820503 656.228149,108.280212 670.624878,119.419464 
	C682.544617,128.642136 689.856445,141.126343 693.108704,156.101059 
	C695.790222,168.447632 696.042725,180.854523 696.019836,193.358139 
	C695.960693,225.671036 696.000000,257.984131 696.000000,290.648499 
	C682.155151,290.648499 668.421448,290.648499 654.291870,290.648499 
	C654.291870,284.471924 654.291870,278.064026 654.291870,271.190826 
	C649.067810,275.354340 644.542480,279.499023 639.495605,282.861023 
	C631.304932,288.317261 622.020935,291.144989 612.248535,291.937897 
	C604.358093,292.578125 596.420593,292.950165 588.508423,292.887299 
	C584.175903,292.852875 579.852478,291.670380 575.091064,291.001343 
M590.111023,258.625793 
	C597.597290,260.056641 604.952454,261.246796 612.769165,260.159393 
	C626.876709,258.196777 638.186951,252.091522 647.059082,240.951859 
	C654.354614,231.791748 651.338989,221.359421 652.009949,211.000000 
	C639.326965,211.000000 627.185730,210.623550 615.080750,211.123428 
	C605.992004,211.498734 596.831726,212.408096 587.923767,214.185196 
	C580.619446,215.642380 574.457397,220.028137 572.085083,227.557678 
	C567.687744,241.514114 574.612183,254.013962 590.111023,258.625793 
z" />
  <path fill="#231F20" stroke="none" d="
M1942.592529,288.759888 
	C1929.378662,293.140839 1916.064575,293.987518 1902.812866,292.846161 
	C1884.829468,291.297302 1868.092529,285.959351 1855.492188,271.946472 
	C1847.784790,263.374969 1843.505127,253.295120 1842.966064,241.639114 
	C1842.354492,228.414261 1844.466553,216.134247 1852.881226,205.279190 
	C1858.553345,197.961853 1865.552856,192.416367 1873.935669,189.174942 
	C1886.897827,184.162888 1900.493408,181.812927 1914.503662,181.957352 
	C1931.807251,182.135727 1949.114014,182.000000 1966.380493,182.000000 
	C1969.103760,164.308990 1959.111694,146.172089 1939.133423,142.041443 
	C1912.918213,136.621216 1888.895630,142.014404 1867.064087,157.420074 
	C1866.683594,157.688553 1866.219727,157.838470 1865.291748,158.286469 
	C1859.576538,147.759323 1853.900879,137.304932 1847.566284,125.636665 
	C1854.392944,121.743011 1860.845093,117.138008 1867.981567,114.190086 
	C1881.762207,108.497627 1896.138672,105.162834 1911.168945,103.785172 
	C1931.357300,101.934700 1951.161499,102.741028 1970.003296,110.200584 
	C1988.377441,117.475113 2001.601440,130.597366 2006.827759,150.166641 
	C2009.071777,158.569122 2010.713013,167.401245 2010.816528,176.059845 
	C2011.250977,212.378113 2011.000000,248.704559 2011.000000,285.028015 
	C2011.000000,286.836578 2011.000000,288.645172 2011.000000,290.722382 
	C1997.335205,290.722382 1983.935425,290.722382 1970.125977,290.722382 
	C1970.125977,284.003265 1970.125977,277.277313 1970.125977,269.209961 
	C1962.643311,279.307678 1953.396729,284.824036 1942.592529,288.759888 
M1921.459351,261.000000 
	C1933.201538,260.000305 1944.422974,257.533020 1953.996460,250.022064 
	C1960.042480,245.278427 1965.277466,239.529373 1966.720825,232.114944 
	C1968.022705,225.427261 1966.995483,218.286224 1966.995483,211.002350 
	C1952.420288,211.002350 1938.286987,210.554459 1924.201294,211.178467 
	C1916.356934,211.525986 1908.372559,212.916626 1900.836914,215.142487 
	C1885.784302,219.588684 1881.204590,238.296753 1892.097412,250.569016 
	C1899.690308,259.123444 1910.219482,259.816864 1921.459351,261.000000 
z" />
  <path fill="#231F20" stroke="none" d="
M361.036926,138.967102 
	C363.289612,149.598648 362.330688,159.560913 358.356506,169.114243 
	C350.800873,187.277039 336.996765,198.706650 317.850403,201.676834 
	C302.017059,204.133041 286.555695,201.356339 274.061310,189.591202 
	C265.987488,181.988586 258.272644,173.859436 249.444382,167.235886 
	C234.709045,156.180496 208.576630,157.473679 194.659546,169.064575 
	C188.699127,174.028702 183.910461,180.384720 178.473969,185.996521 
	C170.744385,193.975342 161.558395,199.746323 150.632278,201.892776 
	C135.009262,204.961975 120.127998,202.844650 107.129654,192.969635 
	C95.556892,184.177673 88.025558,172.890167 85.921562,158.095688 
	C83.246613,139.286453 88.592613,123.316589 102.259926,110.392380 
	C110.398544,102.696259 120.249725,98.282188 131.644196,96.890327 
	C150.589417,94.576118 166.131256,100.657349 178.895721,114.450500 
	C183.572372,119.504051 187.767120,125.013237 192.559616,129.947540 
	C199.067688,136.648193 207.365417,139.507889 216.596054,140.015060 
	C228.566956,140.672760 240.228485,139.650055 249.995163,131.901489 
	C255.170181,127.795761 260.093231,123.153008 264.260162,118.043327 
	C272.087738,108.444794 281.323059,101.243401 293.365479,97.948593 
	C324.081573,89.544647 352.637604,105.847481 360.968872,136.528091 
	C361.137756,137.150055 361.000916,137.855011 361.036926,138.967102 
z" />
  <path fill="#231F20" stroke="none" d="
M2159.981445,252.137985 
	C2163.694580,261.764923 2167.388672,270.999512 2171.171387,280.456177 
	C2162.614014,286.750946 2153.188965,290.495880 2142.775879,292.029022 
	C2129.636475,293.963593 2116.595947,293.633179 2103.841064,289.942657 
	C2083.458496,284.045166 2068.099365,268.267639 2066.275146,246.801895 
	C2064.635254,227.507111 2065.233398,208.014725 2065.031982,188.607544 
	C2064.873291,173.295609 2065.000000,157.980713 2065.000000,142.246613 
	C2054.789307,142.246613 2044.717163,142.246613 2034.324707,142.246613 
	C2034.324707,130.101364 2034.324707,118.368591 2034.324707,106.212662 
	C2044.245605,106.212662 2054.317627,106.212662 2064.803223,106.212662 
	C2064.803223,92.068405 2064.803223,78.332970 2064.803223,64.300903 
	C2079.614258,64.300903 2094.011719,64.300903 2108.830078,64.300903 
	C2108.830078,77.958824 2108.830078,91.694359 2108.830078,105.842453 
	C2125.306152,105.842453 2141.373291,105.842453 2157.718018,105.842453 
	C2157.718018,117.986870 2157.718018,129.718430 2157.718018,141.869720 
	C2141.666016,141.869720 2125.598877,141.869720 2109.000000,141.869720 
	C2109.000000,143.883224 2109.000000,145.487595 2109.000000,147.091965 
	C2109.000000,175.410187 2109.060059,203.728607 2108.972412,232.046555 
	C2108.933105,244.755264 2119.101074,256.838318 2132.834717,256.215515 
	C2142.044678,255.797852 2150.538574,254.479858 2158.140625,248.651550 
	C2158.863281,249.879028 2159.412842,250.812317 2159.981445,252.137985 
z" />
  <path fill="#231F20" stroke="none" d="
M1497.000000,210.000000 
	C1497.000000,174.871674 1497.000000,140.243332 1497.000000,105.307693 
	C1510.933472,105.307693 1524.664429,105.307693 1538.949463,105.307693 
	C1538.949463,113.056152 1538.949463,120.910446 1538.949463,130.431595 
	C1556.429810,108.362640 1579.335205,103.109100 1604.664307,102.907204 
	C1604.664307,116.865982 1604.664307,130.598297 1604.664307,145.131226 
	C1602.414673,144.757355 1600.153076,144.135132 1597.869507,144.039780 
	C1572.367432,142.975052 1547.690308,154.857773 1542.985352,185.808289 
	C1542.570190,188.539505 1542.048584,191.295868 1542.042480,194.041595 
	C1541.975220,224.524277 1542.000000,255.007172 1542.000000,285.490021 
	C1542.000000,287.134796 1542.000000,288.779602 1542.000000,290.708496 
	C1527.033325,290.708496 1512.303223,290.708496 1497.000000,290.708496 
	C1497.000000,264.001099 1497.000000,237.250549 1497.000000,210.000000 
z" />
  <path fill="#FFFFFF" stroke="none" d="
M2273.070557,210.999985 
	C2285.520752,211.000000 2297.480469,211.000000 2309.642822,211.000000 
	C2310.711914,223.592163 2311.487793,235.906754 2301.698486,245.631531 
	C2295.316895,251.971268 2287.734131,256.479370 2278.860352,258.622009 
	C2266.260254,261.664276 2253.757568,261.991150 2241.977295,255.907455 
	C2232.778076,251.156738 2228.022461,243.414505 2228.984375,232.681198 
	C2229.566650,226.184952 2235.322998,216.418121 2244.637695,214.851700 
	C2253.905762,213.293060 2263.262207,212.262238 2273.070557,210.999985 
z" />
  <path fill="#FFFFFF" stroke="none" d="
M1663.966309,180.040253 
	C1669.572021,160.788879 1681.454468,148.018158 1700.581787,142.944031 
	C1718.144531,138.284958 1734.770386,140.411591 1749.483398,151.983429 
	C1763.301025,162.851105 1769.340454,177.363785 1770.073853,194.660995 
	C1770.665039,208.601364 1768.202393,221.678238 1759.912842,233.026566 
	C1751.503906,244.538498 1740.273926,251.817108 1725.850586,254.079651 
	C1712.157227,256.227631 1699.547729,254.340286 1687.442993,247.228027 
	C1673.907227,239.274979 1666.558228,227.179016 1663.152222,212.556503 
	C1660.682495,201.953415 1660.831299,191.090302 1663.966309,180.040253 
z" />
  <path fill="#FFFFFF" stroke="none" d="
M1146.120605,254.000214 
	C1123.971924,249.708694 1108.141113,233.152771 1103.870117,211.474106 
	C1101.241821,198.133514 1102.057739,185.133896 1107.214722,172.904984 
	C1114.250977,156.219650 1126.967285,145.399673 1145.147095,142.041885 
	C1160.227173,139.256607 1174.541016,140.819809 1187.609863,149.895142 
	C1200.653931,158.953156 1207.561157,171.370331 1210.076172,186.826950 
	C1212.318359,200.607178 1211.294556,214.045822 1204.765747,226.270462 
	C1196.670288,241.428711 1184.469116,252.089645 1166.532715,253.898926 
	C1159.939697,254.563980 1153.223022,254.002548 1146.120605,254.000214 
z" />
  <path fill="#FFFFFF" stroke="none" d="
M1409.999023,182.000000 
	C1381.704346,181.989731 1353.909546,181.980591 1326.114624,181.954956 
	C1325.804688,181.954666 1325.495117,181.739746 1325.185791,181.623535 
	C1328.882080,157.352844 1349.530884,135.731918 1383.973999,139.028732 
	C1406.919434,141.225037 1425.370605,159.571060 1427.922729,182.000000 
	C1422.087769,182.000000 1416.293213,182.000000 1409.999023,182.000000 
z" />
  <path fill="#FFFFFF" stroke="none" d="
M589.802612,258.346497 
	C574.612183,254.013962 567.687744,241.514114 572.085083,227.557678 
	C574.457397,220.028137 580.619446,215.642380 587.923767,214.185196 
	C596.831726,212.408096 605.992004,211.498734 615.080750,211.123428 
	C627.185730,210.623550 639.326965,211.000000 652.009949,211.000000 
	C651.338989,221.359421 654.354614,231.791748 647.059082,240.951859 
	C638.186951,252.091522 626.876709,258.196777 612.769165,260.159393 
	C604.952454,261.246796 597.597290,260.056641 589.802612,258.346497 
z" />
  <path fill="#FFFFFF" stroke="none" d="
M1921.001709,261.000000 
	C1910.219482,259.816864 1899.690308,259.123444 1892.097412,250.569016 
	C1881.204590,238.296753 1885.784302,219.588684 1900.836914,215.142487 
	C1908.372559,212.916626 1916.356934,211.525986 1924.201294,211.178467 
	C1938.286987,210.554459 1952.420288,211.002350 1966.995483,211.002350 
	C1966.995483,218.286224 1968.022705,225.427261 1966.720825,232.114944 
	C1965.277466,239.529373 1960.042480,245.278427 1953.996460,250.022064 
	C1944.422974,257.533020 1933.201538,260.000305 1921.001709,261.000000 
z" />
</svg>
