<svg version="1.1" id="Layer_1" xmlns="http://www.w3.org/2000/svg" xmlns:xlink="http://www.w3.org/1999/xlink" x="0px" y="0px"
	 width="100%" viewBox="0 0 2353 302" enable-background="new 0 0 2353 302" xml:space="preserve">
<path fill="#FFFFFF" opacity="1.000000" stroke="none" 
	d="
M2354.000000,291.000000 
	C2354.000000,294.999146 2354.000000,298.998322 2354.000000,302.998718 
	C1701.305298,303.000000 1048.610596,303.000000 395.614136,302.619934 
	C397.711975,301.826874 400.097107,301.273590 402.513611,301.025208 
	C412.872681,299.960510 421.914825,295.704926 429.507324,288.861023 
	C444.597473,275.258636 450.581329,258.228088 446.965759,238.122925 
	C444.480469,224.302750 437.136475,213.275085 425.960785,205.074341 
	C412.929260,195.511749 398.052979,192.598831 382.401245,196.159164 
	C370.489105,198.868881 360.608704,205.393295 352.494659,214.812012 
	C347.200012,220.957977 341.480103,226.986954 335.016113,231.817795 
	C325.272766,239.099487 313.881989,240.395126 301.758667,239.182037 
	C289.431213,237.948532 279.953339,232.983551 272.441986,223.147171 
	C267.919647,217.225067 262.763855,211.597015 257.093323,206.777344 
	C240.701218,192.844879 212.756332,191.726822 195.569458,204.286484 
	C186.910965,210.613846 179.485168,218.755829 172.040649,226.589203 
	C158.025909,241.336014 140.949890,242.343018 122.726822,238.207199 
	C110.644646,235.465088 103.420471,225.941162 96.624474,216.855484 
	C83.515915,199.330444 59.242680,192.379898 38.634987,198.849472 
	C21.210617,204.319687 9.349444,215.608688 3.857590,233.291504 
	C3.423642,234.688736 1.976353,235.771240 1.000003,237.000000 
	C1.000000,158.405792 1.000000,79.811592 1.000000,1.000000 
	C72.694557,1.000000 144.389328,1.000000 216.369843,1.366589 
	C205.582779,2.925940 195.810013,7.227311 187.755493,14.834743 
	C173.844894,27.973221 168.007553,43.924282 170.881836,63.197613 
	C173.055176,77.770714 180.268127,89.285500 191.669266,97.657333 
	C203.620514,106.433136 217.313599,109.788956 232.518951,107.179726 
	C247.541565,104.601845 258.969543,97.022011 267.494202,84.915138 
	C276.311768,72.392258 279.089813,58.271080 275.886475,43.309418 
	C273.040558,30.017300 265.866821,19.404202 254.849396,11.203527 
	C247.632050,5.831363 239.221649,3.753501 231.000000,1.000000 
	C938.666687,1.000000 1646.333374,1.000000 2354.000000,1.000000 
	C2354.000000,54.103333 2354.000000,107.093719 2353.643555,160.438599 
	C2352.522705,159.050507 2351.485107,157.374954 2351.038574,155.554413 
	C2348.284424,144.331497 2343.334229,134.167847 2335.290771,125.917168 
	C2321.034912,111.293816 2302.704590,105.328049 2282.974121,104.196571 
	C2267.219482,103.293083 2251.361328,103.347008 2235.711670,106.915871 
	C2220.592285,110.363777 2206.365967,115.744240 2193.441406,124.323639 
	C2192.273438,125.098938 2190.992676,127.738945 2191.457520,128.628189 
	C2196.771729,138.796463 2202.415039,148.792847 2208.081543,159.036270 
	C2229.673340,143.170624 2253.625244,137.832184 2279.464355,142.125366 
	C2300.090576,145.552475 2310.247803,160.886810 2309.635986,182.000000 
	C2307.366699,182.000000 2305.076904,181.977859 2302.787598,182.003433 
	C2279.338867,182.265396 2255.807129,180.740173 2232.538086,185.017242 
	C2219.487061,187.416214 2207.334473,192.245819 2198.421387,202.290710 
	C2185.075928,217.330933 2181.868164,235.159103 2187.755859,254.184433 
	C2195.394043,278.866547 2218.592041,290.691559 2242.272949,292.881012 
	C2250.380127,293.630554 2258.693359,293.700439 2266.769287,292.799408 
	C2274.561768,291.929962 2282.640869,290.471283 2289.733887,287.329651 
	C2297.708740,283.797333 2304.721436,278.091461 2312.155518,273.329285 
	C2312.155518,278.651520 2312.155518,284.704163 2312.155518,291.000000 
	C2326.397949,291.000000 2340.198975,291.000000 2354.000000,291.000000 
M765.000000,114.512459 
	C765.000000,111.745872 765.000000,108.979294 765.000000,106.332840 
	C750.646301,106.332840 736.915161,106.332840 723.344971,106.332840 
	C723.344971,168.055847 723.344971,229.445496 723.344971,290.632507 
	C738.090759,290.632507 752.489380,290.632507 767.000000,290.632507 
	C767.000000,258.610016 766.895020,226.954224 767.090454,195.300278 
	C767.128540,189.130157 767.662964,182.801773 769.133545,176.833466 
	C772.866638,161.683380 781.813538,150.534561 796.771423,145.142227 
	C805.792908,141.889954 815.310059,140.777374 824.703918,143.139374 
	C832.564758,145.115921 839.817322,148.419754 845.120178,155.273163 
	C852.363037,164.633942 854.949829,175.277664 854.974854,186.741974 
	C855.046387,219.568283 855.000000,252.394867 855.000000,285.221344 
	C855.000000,287.008850 855.000000,288.796387 855.000000,290.760956 
	C869.829712,290.760956 884.225891,290.760956 899.000000,290.760956 
	C899.000000,288.899475 899.000000,287.271881 899.000000,285.644287 
	C899.000000,258.150024 898.758301,230.652420 899.138611,203.163422 
	C899.262268,194.228607 900.130371,185.104721 902.210388,176.439972 
	C905.943787,160.887726 915.538574,149.937805 931.159424,144.963348 
	C938.823730,142.522614 946.462646,141.545807 954.678528,142.810028 
	C965.411743,144.461594 973.767029,149.410217 979.913086,157.958710 
	C985.878235,166.255676 987.835205,176.099396 987.908081,186.057999 
	C988.150940,219.215973 988.000000,252.376816 988.000000,285.536560 
	C988.000000,287.294067 988.000000,289.051575 988.000000,290.649506 
	C1003.056213,290.649506 1017.454285,290.649506 1032.000000,290.649506 
	C1032.000000,254.816208 1031.875000,219.332550 1032.062012,183.850525 
	C1032.135986,169.811508 1030.465698,156.123611 1024.905273,143.217163 
	C1018.501526,128.353470 1007.694885,117.718864 992.865356,110.876900 
	C975.454468,102.843971 957.317139,102.686867 938.946411,105.068680 
	C922.476929,107.203995 907.793762,113.679672 895.472595,125.038422 
	C892.559753,127.723808 889.792419,130.567154 886.922852,133.372437 
	C876.693115,117.893837 862.566833,109.004585 845.276489,105.822762 
	C815.844849,100.406639 788.396851,104.258011 765.000000,127.058037 
	C765.000000,122.338707 765.000000,118.914268 765.000000,114.512459 
M1739.165039,289.956512 
	C1750.771729,285.673279 1761.374634,279.706055 1771.086182,269.592285 
	C1771.086182,277.778931 1771.086182,284.308197 1771.086182,290.643066 
	C1785.732788,290.643066 1799.799316,290.643066 1813.621582,290.643066 
	C1813.621582,204.889771 1813.621582,119.493767 1813.621582,34.226681 
	C1798.961548,34.226681 1784.680664,34.226681 1769.789795,34.226681 
	C1769.789795,64.928360 1769.789795,95.408684 1769.789795,125.889015 
	C1769.235229,126.248398 1768.680664,126.607788 1768.126099,126.967171 
	C1767.096558,125.492661 1766.360352,123.615479 1764.985962,122.614540 
	C1759.485596,118.608612 1754.198120,113.962471 1748.085693,111.209427 
	C1728.955688,102.592987 1708.871338,102.013947 1688.504883,105.986458 
	C1660.692017,111.411415 1639.985474,126.890976 1627.223633,151.853058 
	C1616.428345,172.968430 1614.690674,195.722031 1618.867310,219.117645 
	C1622.767822,240.967819 1632.564087,259.085846 1649.736084,273.311615 
	C1666.492065,287.192993 1686.145996,293.203339 1707.322266,293.725342 
	C1717.622925,293.979218 1727.994995,291.330841 1739.165039,289.956512 
M1059.000000,67.500000 
	C1059.000000,141.916199 1059.000000,216.332413 1059.000000,290.675018 
	C1073.337036,290.675018 1087.068359,290.675018 1101.293701,290.675018 
	C1101.293701,283.358704 1101.293701,276.361359 1101.293701,267.889771 
	C1105.321167,272.221283 1107.970215,276.067535 1111.516724,278.709045 
	C1125.686157,289.263062 1142.171753,293.281830 1159.471191,293.850769 
	C1166.618530,294.085815 1173.890259,293.094788 1180.983887,291.924744 
	C1201.987061,288.460480 1219.807373,279.191559 1233.844849,262.768829 
	C1247.834229,246.402405 1254.423340,227.231201 1255.890747,206.205902 
	C1257.015991,190.082687 1255.229492,174.123993 1248.920532,159.056137 
	C1240.910400,139.925385 1228.062012,124.969177 1209.687134,114.935875 
	C1193.430054,106.059029 1176.000122,103.375763 1157.694092,103.913666 
	C1138.408203,104.480362 1121.377319,110.269608 1107.043335,123.422844 
	C1106.001831,124.378479 1104.644165,124.989578 1102.758789,126.190765 
	C1102.758789,94.848869 1102.758789,64.582512 1102.758789,34.291611 
	C1088.063965,34.291611 1073.666870,34.291611 1059.000000,34.291611 
	C1059.000000,45.220943 1059.000000,55.860470 1059.000000,67.500000 
M1305.482178,263.987610 
	C1315.850586,274.429688 1327.849487,282.335999 1341.846924,287.002563 
	C1358.580688,292.581360 1375.568604,294.846588 1393.368164,293.237488 
	C1409.502686,291.778900 1424.755005,288.502777 1438.625488,280.015381 
	C1446.098755,275.442505 1453.567505,270.759155 1458.304565,262.762207 
	C1450.341553,253.641968 1442.573364,244.744690 1434.754761,235.789780 
	C1431.567993,238.419174 1428.922729,240.890411 1425.997803,242.968048 
	C1407.868896,255.845551 1387.847290,258.632172 1366.438232,253.995468 
	C1345.308350,249.419220 1327.928467,231.557251 1325.610596,212.726685 
	C1373.739380,212.726685 1421.817871,212.726685 1470.000000,212.726685 
	C1470.000000,204.631470 1470.021973,196.952652 1469.994995,189.274017 
	C1469.948975,176.168854 1466.246094,163.788300 1460.512695,152.340729 
	C1450.942017,133.231537 1436.093018,119.356209 1416.124878,110.933342 
	C1396.494751,102.652985 1376.040039,102.006027 1355.756714,105.432686 
	C1335.403931,108.871101 1317.664551,118.475098 1303.810913,134.543854 
	C1296.494995,143.029617 1290.830688,152.298874 1286.976074,162.760452 
	C1280.963745,179.078583 1279.853882,195.793594 1281.899902,213.004059 
	C1284.207031,232.410172 1292.140625,249.008240 1305.482178,263.987610 
M601.709351,182.000015 
	C599.118469,182.333328 596.522949,182.982880 593.937500,182.944763 
	C583.209045,182.786636 572.788147,184.677536 562.739441,188.122986 
	C530.066833,199.325623 518.679626,232.716766 532.512268,261.389404 
	C542.528992,282.152283 561.880920,290.945343 584.214478,292.886536 
	C592.330933,293.591980 600.602722,293.513062 608.724487,292.838257 
	C615.272095,292.294281 621.903870,290.922791 628.135437,288.835114 
	C638.148499,285.480499 647.120789,280.136139 654.241943,270.233521 
	C654.241943,278.023346 654.241943,284.426300 654.241943,290.651123 
	C668.392273,290.651123 682.120972,290.651123 696.000000,290.651123 
	C696.000000,268.323700 696.274475,246.340439 695.920959,224.367264 
	C695.583069,203.362747 697.661438,182.283371 694.029480,161.361511 
	C691.484314,146.699463 685.806824,133.487259 674.747498,123.437492 
	C660.894897,110.849464 643.761414,105.131012 625.406860,104.185898 
	C609.474121,103.365494 593.462952,103.391457 577.634216,106.906242 
	C562.462891,110.275040 548.259644,115.670822 535.311157,124.284195 
	C533.066956,125.777054 532.450500,127.443077 533.954224,130.105499 
	C539.345886,139.651352 544.500916,149.330765 549.591797,158.677719 
	C555.855469,155.203629 561.829712,151.294907 568.269470,148.433609 
	C585.295532,140.868637 603.283569,138.684357 621.489502,142.156097 
	C644.613708,146.565704 651.889954,163.632690 651.550476,182.000000 
	C635.263855,182.000000 618.968140,182.000000 601.709351,182.000015 
M1860.508667,150.007126 
	C1862.114868,153.102081 1863.721191,156.197021 1865.245850,159.134827 
	C1869.955444,156.158005 1873.905273,153.290802 1878.174927,151.026810 
	C1896.761230,141.171539 1916.703125,138.529388 1937.136719,142.170441 
	C1956.807617,145.675598 1968.827759,161.498428 1966.482788,181.999969 
	C1965.233765,181.999969 1963.936523,181.965942 1962.641235,182.005035 
	C1940.796631,182.664459 1918.916504,182.780167 1897.119629,184.185059 
	C1881.403931,185.197983 1867.275269,190.771805 1855.799194,202.526810 
	C1842.185913,216.470978 1839.735840,240.053436 1845.967285,256.517639 
	C1853.285522,275.853363 1868.520020,286.018616 1887.744141,290.940430 
	C1900.728882,294.264832 1913.982666,295.007477 1927.263062,292.950745 
	C1938.689209,291.181213 1949.743286,288.081329 1959.108765,280.917053 
	C1962.827148,278.072662 1966.013916,274.533386 1970.154053,270.641876 
	C1970.154053,277.984253 1970.154053,284.371887 1970.154053,290.675873 
	C1984.001221,290.675873 1997.399536,290.675873 2011.000000,290.675873 
	C2011.000000,288.536407 2011.000000,286.719849 2011.000000,284.903320 
	C2011.000000,252.241226 2011.147217,219.578064 2010.908325,186.917725 
	C2010.838745,177.408630 2010.231445,167.824875 2008.856201,158.423782 
	C2007.133667,146.650330 2001.808228,136.284103 1993.847168,127.344223 
	C1979.811401,111.582787 1961.083252,105.690384 1941.133667,104.269501 
	C1923.618896,103.022034 1905.909424,103.217300 1888.614624,107.949867 
	C1874.014282,111.945198 1860.113037,117.264397 1847.834351,126.638268 
	C1851.956421,134.315674 1856.005371,141.856857 1860.508667,150.007126 
M86.110146,138.973419 
	C85.740280,142.251114 85.026955,145.531982 85.057236,148.805984 
	C85.231766,167.675980 92.300201,183.304245 107.934967,194.283859 
	C126.255890,207.149902 151.474472,207.581512 169.523010,193.714981 
	C177.066544,187.919357 183.655426,180.684006 189.893402,173.428391 
	C201.895889,159.467896 230.373581,158.086594 244.085266,164.454910 
	C254.249680,169.175690 260.597260,178.144684 268.759705,185.092239 
	C274.622650,190.082550 280.653900,195.463165 287.560242,198.529709 
	C308.623077,207.882004 331.221863,203.375961 347.317780,186.877914 
	C360.038605,173.839203 364.248810,157.568466 361.107483,139.323563 
	C356.166534,110.626205 326.442963,90.840645 297.307861,97.239548 
	C281.922241,100.618668 270.772034,110.032593 261.357086,121.470581 
	C252.472809,132.263855 242.021667,139.472672 228.156769,140.735382 
	C211.863434,142.219299 197.361465,138.513657 186.749405,124.632507 
	C182.677551,119.306297 178.092255,114.250717 173.121521,109.756943 
	C159.389481,97.342545 142.813797,94.107742 125.459099,98.537560 
	C104.953873,103.771545 91.918411,117.561966 86.110146,138.973419 
M2065.000000,188.500000 
	C2065.333252,207.908401 2064.502686,227.426376 2066.317383,246.695282 
	C2068.245850,267.173920 2079.780273,281.949463 2099.647217,288.912994 
	C2111.711914,293.141785 2124.087891,294.784882 2137.128174,293.258484 
	C2147.990967,291.987000 2158.078369,289.480560 2167.404297,283.880371 
	C2170.300537,282.141235 2170.875000,280.077240 2169.410889,276.679718 
	C2165.529297,267.672211 2162.167480,258.440643 2158.962158,250.228882 
	C2153.187256,252.181961 2147.544189,254.579483 2141.663818,255.987854 
	C2123.743408,260.279938 2108.823730,251.320236 2108.957031,230.432419 
	C2109.131592,203.116745 2109.000000,175.799118 2109.000000,148.482330 
	C2109.000000,146.723541 2109.000000,144.964737 2109.000000,142.772095 
	C2125.700439,142.772095 2141.763916,142.772095 2157.645996,142.772095 
	C2157.645996,130.596741 2157.645996,118.867546 2157.645996,106.705261 
	C2141.231445,106.705261 2125.168213,106.705261 2108.849609,106.705261 
	C2108.849609,92.652931 2108.849609,79.043144 2108.849609,65.225769 
	C2094.188965,65.225769 2079.796875,65.225769 2064.959961,65.225769 
	C2064.959961,79.175049 2064.959961,92.906639 2064.959961,107.076035 
	C2054.456055,107.076035 2044.388794,107.076035 2034.279907,107.076035 
	C2034.279907,119.252670 2034.279907,130.979752 2034.279907,143.150696 
	C2044.620605,143.150696 2054.689209,143.150696 2065.000000,143.150696 
	C2065.000000,158.231140 2065.000000,172.865570 2065.000000,188.500000 
M1507.522827,106.000000 
	C1504.088379,106.000000 1500.653931,106.000000 1497.288574,106.000000 
	C1497.288574,167.980667 1497.288574,229.351135 1497.288574,290.695801 
	C1512.304810,290.695801 1527.030518,290.695801 1542.000000,290.695801 
	C1542.000000,288.583099 1542.000000,286.772736 1542.000000,284.962402 
	C1542.000000,254.315506 1541.857178,223.667572 1542.078125,193.022263 
	C1542.154297,182.434494 1545.232788,172.251068 1551.756104,163.989990 
	C1565.684326,146.351700 1584.220947,142.879135 1604.643677,145.779327 
	C1604.643677,131.891190 1604.643677,118.014282 1604.643677,104.075600 
	C1578.902588,102.978706 1556.506104,109.502686 1538.863770,131.073410 
	C1538.863770,121.692841 1538.863770,113.976486 1538.863770,106.000000 
	C1528.453613,106.000000 1518.485840,106.000000 1507.522827,106.000000 
z"/>
<path fill="#1C3664" opacity="1.000000" stroke="none" 
	d="
M1.000003,237.468643 
	C1.976353,235.771240 3.423642,234.688736 3.857590,233.291504 
	C9.349444,215.608688 21.210617,204.319687 38.634987,198.849472 
	C59.242680,192.379898 83.515915,199.330444 96.624474,216.855484 
	C103.420471,225.941162 110.644646,235.465088 122.726822,238.207199 
	C140.949890,242.343018 158.025909,241.336014 172.040649,226.589203 
	C179.485168,218.755829 186.910965,210.613846 195.569458,204.286484 
	C212.756332,191.726822 240.701218,192.844879 257.093323,206.777344 
	C262.763855,211.597015 267.919647,217.225067 272.441986,223.147171 
	C279.953339,232.983551 289.431213,237.948532 301.758667,239.182037 
	C313.881989,240.395126 325.272766,239.099487 335.016113,231.817795 
	C341.480103,226.986954 347.200012,220.957977 352.494659,214.812012 
	C360.608704,205.393295 370.489105,198.868881 382.401245,196.159164 
	C398.052979,192.598831 412.929260,195.511749 425.960785,205.074341 
	C437.136475,213.275085 444.480469,224.302750 446.965759,238.122925 
	C450.581329,258.228088 444.597473,275.258636 429.507324,288.861023 
	C421.914825,295.704926 412.872681,299.960510 402.513611,301.025208 
	C400.097107,301.273590 397.711975,301.826874 395.156189,302.619934 
	C393.285645,303.000000 391.571289,303.000000 389.416077,302.578979 
	C388.703796,301.806702 388.452759,301.166595 388.158020,301.145813 
	C374.369934,300.172607 363.531952,293.566589 354.214783,283.780060 
	C349.057068,278.362549 344.105835,272.506805 338.095520,268.195221 
	C327.154022,260.346283 314.802246,257.618408 301.124664,259.842377 
	C288.716187,261.859955 278.637238,267.322388 271.065979,277.059296 
	C261.816162,288.954865 251.384827,298.754089 235.720200,301.088257 
	C232.457596,301.574341 229.238922,302.355042 226.000000,303.000000 
	C224.611115,303.000000 223.222214,303.000000 221.252899,302.614746 
	C204.616272,301.678040 192.380020,293.768890 181.806931,282.376007 
	C177.154449,277.362793 172.518234,272.105591 167.013565,268.160675 
	C156.225494,260.429443 143.981369,258.741486 130.821564,260.836731 
	C117.486221,262.959961 107.553505,269.634338 99.241974,279.999695 
	C94.816704,285.518463 89.487839,290.712067 83.583542,294.533051 
	C77.695251,298.343628 70.578278,300.255615 64.000000,303.000000 
	C57.978848,303.000000 51.957695,303.000000 45.321716,302.627136 
	C26.468830,299.029083 13.711267,288.782104 5.960103,272.077148 
	C4.384704,268.681946 2.657319,265.357208 1.000000,262.000000 
	C1.000000,253.979095 1.000000,245.958191 1.000003,237.468643 
z"/>
<path fill="#1C3664" opacity="1.000000" stroke="none" 
	d="
M2354.000000,290.531342 
	C2340.198975,291.000000 2326.397949,291.000000 2312.155518,291.000000 
	C2312.155518,284.704163 2312.155518,278.651520 2312.155518,273.329285 
	C2304.721436,278.091461 2297.708740,283.797333 2289.733887,287.329651 
	C2282.640869,290.471283 2274.561768,291.929962 2266.769287,292.799408 
	C2258.693359,293.700439 2250.380127,293.630554 2242.272949,292.881012 
	C2218.592041,290.691559 2195.394043,278.866547 2187.755859,254.184433 
	C2181.868164,235.159103 2185.075928,217.330933 2198.421387,202.290710 
	C2207.334473,192.245819 2219.487061,187.416214 2232.538086,185.017242 
	C2255.807129,180.740173 2279.338867,182.265396 2302.787598,182.003433 
	C2305.076904,181.977859 2307.366699,182.000000 2309.635986,182.000000 
	C2310.247803,160.886810 2300.090576,145.552475 2279.464355,142.125366 
	C2253.625244,137.832184 2229.673340,143.170624 2208.081543,159.036270 
	C2202.415039,148.792847 2196.771729,138.796463 2191.457520,128.628189 
	C2190.992676,127.738945 2192.273438,125.098938 2193.441406,124.323639 
	C2206.365967,115.744240 2220.592285,110.363777 2235.711670,106.915871 
	C2251.361328,103.347008 2267.219482,103.293083 2282.974121,104.196571 
	C2302.704590,105.328049 2321.034912,111.293816 2335.290771,125.917168 
	C2343.334229,134.167847 2348.284424,144.331497 2351.038574,155.554413 
	C2351.485107,157.374954 2352.522705,159.050507 2353.643555,160.896545 
	C2354.000000,161.000000 2354.000000,161.500000 2353.625488,161.896759 
	C2353.500732,164.529007 2353.750488,166.764496 2354.000000,169.000000 
	C2354.000000,209.354233 2354.000000,249.708450 2354.000000,290.531342 
M2303.417236,212.000000 
	C2290.427002,212.000000 2277.415283,211.555481 2264.454590,212.175262 
	C2257.268799,212.518890 2250.054199,214.212631 2243.056396,216.066757 
	C2233.587402,218.575592 2229.747070,226.080612 2229.011963,233.850952 
	C2228.080078,243.698242 2232.116943,251.253174 2240.652832,255.817749 
	C2254.782227,263.373230 2269.703369,263.155945 2284.126953,257.246674 
	C2307.266602,247.766464 2312.814453,234.587906 2309.309326,212.000000 
	C2307.691406,212.000000 2306.041748,212.000000 2303.417236,212.000000 
z"/>
<path fill="#F16623" opacity="1.000000" stroke="none" 
	d="
M230.535355,1.000000 
	C239.221649,3.753501 247.632050,5.831363 254.849396,11.203527 
	C265.866821,19.404202 273.040558,30.017300 275.886475,43.309418 
	C279.089813,58.271080 276.311768,72.392258 267.494202,84.915138 
	C258.969543,97.022011 247.541565,104.601845 232.518951,107.179726 
	C217.313599,109.788956 203.620514,106.433136 191.669266,97.657333 
	C180.268127,89.285500 173.055176,77.770714 170.881836,63.197613 
	C168.007553,43.924282 173.844894,27.973221 187.755493,14.834743 
	C195.810013,7.227311 205.582779,2.925940 216.827789,1.366589 
	C221.356903,1.000000 225.713806,1.000000 230.535355,1.000000 
z"/>
<path fill="#FFFFFF" opacity="1.000000" stroke="none" 
	d="
M226.468658,303.000000 
	C229.238922,302.355042 232.457596,301.574341 235.720200,301.088257 
	C251.384827,298.754089 261.816162,288.954865 271.065979,277.059296 
	C278.637238,267.322388 288.716187,261.859955 301.124664,259.842377 
	C314.802246,257.618408 327.154022,260.346283 338.095520,268.195221 
	C344.105835,272.506805 349.057068,278.362549 354.214783,283.780060 
	C363.531952,293.566589 374.369934,300.172607 388.158020,301.145813 
	C388.452759,301.166595 388.703796,301.806702 388.987610,302.578979 
	C334.979095,303.000000 280.958221,303.000000 226.468658,303.000000 
z"/>
<path fill="#FFFFFF" opacity="1.000000" stroke="none" 
	d="
M64.468658,303.000000 
	C70.578278,300.255615 77.695251,298.343628 83.583542,294.533051 
	C89.487839,290.712067 94.816704,285.518463 99.241974,279.999695 
	C107.553505,269.634338 117.486221,262.959961 130.821564,260.836731 
	C143.981369,258.741486 156.225494,260.429443 167.013565,268.160675 
	C172.518234,272.105591 177.154449,277.362793 181.806931,282.376007 
	C192.380020,293.768890 204.616272,301.678040 220.836243,302.614746 
	C168.979111,303.000000 116.958214,303.000000 64.468658,303.000000 
z"/>
<path fill="#FFFFFF" opacity="1.000000" stroke="none" 
	d="
M1.000000,262.468658 
	C2.657319,265.357208 4.384704,268.681946 5.960103,272.077148 
	C13.711267,288.782104 26.468830,299.029083 44.853447,302.627136 
	C30.409239,303.000000 15.818477,303.000000 1.000000,303.000000 
	C1.000000,289.646637 1.000000,276.291962 1.000000,262.468658 
z"/>
<path fill="#FFFFFF" opacity="1.000000" stroke="none" 
	d="
M2354.000000,168.562531 
	C2353.750488,166.764496 2353.500732,164.529007 2353.625488,162.146759 
	C2354.000000,164.041687 2354.000000,166.083374 2354.000000,168.562531 
z"/>
<path fill="#1C3664" opacity="1.000000" stroke="none" 
	d="
M765.000000,115.001144 
	C765.000000,118.914268 765.000000,122.338707 765.000000,127.058037 
	C788.396851,104.258011 815.844849,100.406639 845.276489,105.822762 
	C862.566833,109.004585 876.693115,117.893837 886.922852,133.372437 
	C889.792419,130.567154 892.559753,127.723808 895.472595,125.038422 
	C907.793762,113.679672 922.476929,107.203995 938.946411,105.068680 
	C957.317139,102.686867 975.454468,102.843971 992.865356,110.876900 
	C1007.694885,117.718864 1018.501526,128.353470 1024.905273,143.217163 
	C1030.465698,156.123611 1032.135986,169.811508 1032.062012,183.850525 
	C1031.875000,219.332550 1032.000000,254.816208 1032.000000,290.649506 
	C1017.454285,290.649506 1003.056213,290.649506 988.000000,290.649506 
	C988.000000,289.051575 988.000000,287.294067 988.000000,285.536560 
	C988.000000,252.376816 988.150940,219.215973 987.908081,186.057999 
	C987.835205,176.099396 985.878235,166.255676 979.913086,157.958710 
	C973.767029,149.410217 965.411743,144.461594 954.678528,142.810028 
	C946.462646,141.545807 938.823730,142.522614 931.159424,144.963348 
	C915.538574,149.937805 905.943787,160.887726 902.210388,176.439972 
	C900.130371,185.104721 899.262268,194.228607 899.138611,203.163422 
	C898.758301,230.652420 899.000000,258.150024 899.000000,285.644287 
	C899.000000,287.271881 899.000000,288.899475 899.000000,290.760956 
	C884.225891,290.760956 869.829712,290.760956 855.000000,290.760956 
	C855.000000,288.796387 855.000000,287.008850 855.000000,285.221344 
	C855.000000,252.394867 855.046387,219.568283 854.974854,186.741974 
	C854.949829,175.277664 852.363037,164.633942 845.120178,155.273163 
	C839.817322,148.419754 832.564758,145.115921 824.703918,143.139374 
	C815.310059,140.777374 805.792908,141.889954 796.771423,145.142227 
	C781.813538,150.534561 772.866638,161.683380 769.133545,176.833466 
	C767.662964,182.801773 767.128540,189.130157 767.090454,195.300278 
	C766.895020,226.954224 767.000000,258.610016 767.000000,290.632507 
	C752.489380,290.632507 738.090759,290.632507 723.344971,290.632507 
	C723.344971,229.445496 723.344971,168.055847 723.344971,106.332840 
	C736.915161,106.332840 750.646301,106.332840 765.000000,106.332840 
	C765.000000,108.979294 765.000000,111.745872 765.000000,115.001144 
z"/>
<path fill="#1C3664" opacity="1.000000" stroke="none" 
	d="
M1738.749878,289.976379 
	C1727.994995,291.330841 1717.622925,293.979218 1707.322266,293.725342 
	C1686.145996,293.203339 1666.492065,287.192993 1649.736084,273.311615 
	C1632.564087,259.085846 1622.767822,240.967819 1618.867310,219.117645 
	C1614.690674,195.722031 1616.428345,172.968430 1627.223633,151.853058 
	C1639.985474,126.890976 1660.692017,111.411415 1688.504883,105.986458 
	C1708.871338,102.013947 1728.955688,102.592987 1748.085693,111.209427 
	C1754.198120,113.962471 1759.485596,118.608612 1764.985962,122.614540 
	C1766.360352,123.615479 1767.096558,125.492661 1768.126099,126.967171 
	C1768.680664,126.607788 1769.235229,126.248398 1769.789795,125.889015 
	C1769.789795,95.408684 1769.789795,64.928360 1769.789795,34.226681 
	C1784.680664,34.226681 1798.961548,34.226681 1813.621582,34.226681 
	C1813.621582,119.493767 1813.621582,204.889771 1813.621582,290.643066 
	C1799.799316,290.643066 1785.732788,290.643066 1771.086182,290.643066 
	C1771.086182,284.308197 1771.086182,277.778931 1771.086182,269.592285 
	C1761.374634,279.706055 1750.771729,285.673279 1738.749878,289.976379 
M1770.000000,206.236008 
	C1769.666626,198.992554 1770.096558,191.613159 1768.835938,184.534866 
	C1766.446411,171.119415 1759.763062,160.029984 1748.516113,151.844864 
	C1736.184082,142.870010 1722.634766,139.838684 1707.573608,141.923523 
	C1693.571289,143.861771 1681.800903,150.110123 1673.592529,161.197296 
	C1659.998779,179.558395 1658.282837,200.085556 1665.830688,221.471710 
	C1676.677979,252.206421 1712.261719,263.642548 1739.917358,250.470398 
	C1757.972168,241.870926 1767.145386,226.590561 1770.000000,206.236008 
z"/>
<path fill="#1C3664" opacity="1.000000" stroke="none" 
	d="
M1059.000000,67.000000 
	C1059.000000,55.860470 1059.000000,45.220943 1059.000000,34.291611 
	C1073.666870,34.291611 1088.063965,34.291611 1102.758789,34.291611 
	C1102.758789,64.582512 1102.758789,94.848869 1102.758789,126.190765 
	C1104.644165,124.989578 1106.001831,124.378479 1107.043335,123.422844 
	C1121.377319,110.269608 1138.408203,104.480362 1157.694092,103.913666 
	C1176.000122,103.375763 1193.430054,106.059029 1209.687134,114.935875 
	C1228.062012,124.969177 1240.910400,139.925385 1248.920532,159.056137 
	C1255.229492,174.123993 1257.015991,190.082687 1255.890747,206.205902 
	C1254.423340,227.231201 1247.834229,246.402405 1233.844849,262.768829 
	C1219.807373,279.191559 1201.987061,288.460480 1180.983887,291.924744 
	C1173.890259,293.094788 1166.618530,294.085815 1159.471191,293.850769 
	C1142.171753,293.281830 1125.686157,289.263062 1111.516724,278.709045 
	C1107.970215,276.067535 1105.321167,272.221283 1101.293701,267.889771 
	C1101.293701,276.361359 1101.293701,283.358704 1101.293701,290.675018 
	C1087.068359,290.675018 1073.337036,290.675018 1059.000000,290.675018 
	C1059.000000,216.332413 1059.000000,141.916199 1059.000000,67.000000 
M1163.680176,141.929367 
	C1158.511108,141.952774 1153.274170,141.446487 1148.185303,142.097244 
	C1131.812866,144.191025 1119.333984,152.686401 1110.812744,166.699341 
	C1102.023438,181.153122 1100.548218,196.987061 1104.084961,213.158539 
	C1110.902344,244.332199 1139.021606,260.567017 1168.025146,254.744492 
	C1195.235962,249.281860 1208.931519,229.051178 1210.865234,203.736420 
	C1212.043823,188.305618 1209.071533,173.579514 1199.012573,161.026764 
	C1190.134399,149.947342 1178.763306,143.438644 1163.680176,141.929367 
z"/>
<path fill="#1C3664" opacity="1.000000" stroke="none" 
	d="
M1305.233398,263.732300 
	C1292.140625,249.008240 1284.207031,232.410172 1281.899902,213.004059 
	C1279.853882,195.793594 1280.963745,179.078583 1286.976074,162.760452 
	C1290.830688,152.298874 1296.494995,143.029617 1303.810913,134.543854 
	C1317.664551,118.475098 1335.403931,108.871101 1355.756714,105.432686 
	C1376.040039,102.006027 1396.494751,102.652985 1416.124878,110.933342 
	C1436.093018,119.356209 1450.942017,133.231537 1460.512695,152.340729 
	C1466.246094,163.788300 1469.948975,176.168854 1469.994995,189.274017 
	C1470.021973,196.952652 1470.000000,204.631470 1470.000000,212.726685 
	C1421.817871,212.726685 1373.739380,212.726685 1325.610596,212.726685 
	C1327.928467,231.557251 1345.308350,249.419220 1366.438232,253.995468 
	C1387.847290,258.632172 1407.868896,255.845551 1425.997803,242.968048 
	C1428.922729,240.890411 1431.567993,238.419174 1434.754761,235.789780 
	C1442.573364,244.744690 1450.341553,253.641968 1458.304565,262.762207 
	C1453.567505,270.759155 1446.098755,275.442505 1438.625488,280.015381 
	C1424.755005,288.502777 1409.502686,291.778900 1393.368164,293.237488 
	C1375.568604,294.846588 1358.580688,292.581360 1341.846924,287.002563 
	C1327.849487,282.335999 1315.850586,274.429688 1305.233398,263.732300 
M1365.500000,183.000000 
	C1386.285156,183.000000 1407.070190,183.000000 1427.902466,183.000000 
	C1425.365234,159.819382 1407.880249,141.084946 1380.520508,139.167740 
	C1353.074341,137.244507 1329.484009,154.516769 1325.172485,182.523941 
	C1325.458374,182.668289 1325.743774,182.938171 1326.030029,182.938950 
	C1338.853394,182.974136 1351.676636,182.985672 1365.500000,183.000000 
z"/>
<path fill="#1C3664" opacity="1.000000" stroke="none" 
	d="
M602.190857,182.000000 
	C618.968140,182.000000 635.263855,182.000000 651.550476,182.000000 
	C651.889954,163.632690 644.613708,146.565704 621.489502,142.156097 
	C603.283569,138.684357 585.295532,140.868637 568.269470,148.433609 
	C561.829712,151.294907 555.855469,155.203629 549.591797,158.677719 
	C544.500916,149.330765 539.345886,139.651352 533.954224,130.105499 
	C532.450500,127.443077 533.066956,125.777054 535.311157,124.284195 
	C548.259644,115.670822 562.462891,110.275040 577.634216,106.906242 
	C593.462952,103.391457 609.474121,103.365494 625.406860,104.185898 
	C643.761414,105.131012 660.894897,110.849464 674.747498,123.437492 
	C685.806824,133.487259 691.484314,146.699463 694.029480,161.361511 
	C697.661438,182.283371 695.583069,203.362747 695.920959,224.367264 
	C696.274475,246.340439 696.000000,268.323700 696.000000,290.651123 
	C682.120972,290.651123 668.392273,290.651123 654.241943,290.651123 
	C654.241943,284.426300 654.241943,278.023346 654.241943,270.233521 
	C647.120789,280.136139 638.148499,285.480499 628.135437,288.835114 
	C621.903870,290.922791 615.272095,292.294281 608.724487,292.838257 
	C600.602722,293.513062 592.330933,293.591980 584.214478,292.886536 
	C561.880920,290.945343 542.528992,282.152283 532.512268,261.389404 
	C518.679626,232.716766 530.066833,199.325623 562.739441,188.122986 
	C572.788147,184.677536 583.209045,182.786636 593.937500,182.944763 
	C596.522949,182.982880 599.118469,182.333328 602.190857,182.000000 
M631.497803,255.069214 
	C651.949646,243.140823 653.909729,230.947540 651.284546,212.000000 
	C636.848145,212.000000 622.384644,211.804932 607.930725,212.091766 
	C601.764465,212.214127 595.535461,212.920502 589.481384,214.108139 
	C579.068359,216.150894 571.711609,224.219513 570.937927,232.780060 
	C569.783752,245.550949 576.694763,254.358826 587.260315,258.081818 
	C602.193115,263.343750 616.672974,261.734650 631.497803,255.069214 
z"/>
<path fill="#1C3664" opacity="1.000000" stroke="none" 
	d="
M1860.281494,149.702576 
	C1856.005371,141.856857 1851.956421,134.315674 1847.834351,126.638268 
	C1860.113037,117.264397 1874.014282,111.945198 1888.614624,107.949867 
	C1905.909424,103.217300 1923.618896,103.022034 1941.133667,104.269501 
	C1961.083252,105.690384 1979.811401,111.582787 1993.847168,127.344223 
	C2001.808228,136.284103 2007.133667,146.650330 2008.856201,158.423782 
	C2010.231445,167.824875 2010.838745,177.408630 2010.908325,186.917725 
	C2011.147217,219.578064 2011.000000,252.241226 2011.000000,284.903320 
	C2011.000000,286.719849 2011.000000,288.536407 2011.000000,290.675873 
	C1997.399536,290.675873 1984.001221,290.675873 1970.154053,290.675873 
	C1970.154053,284.371887 1970.154053,277.984253 1970.154053,270.641876 
	C1966.013916,274.533386 1962.827148,278.072662 1959.108765,280.917053 
	C1949.743286,288.081329 1938.689209,291.181213 1927.263062,292.950745 
	C1913.982666,295.007477 1900.728882,294.264832 1887.744141,290.940430 
	C1868.520020,286.018616 1853.285522,275.853363 1845.967285,256.517639 
	C1839.735840,240.053436 1842.185913,216.470978 1855.799194,202.526810 
	C1867.275269,190.771805 1881.403931,185.197983 1897.119629,184.185059 
	C1918.916504,182.780167 1940.796631,182.664459 1962.641235,182.005035 
	C1963.936523,181.965942 1965.233765,181.999969 1966.482788,181.999969 
	C1968.827759,161.498428 1956.807617,145.675598 1937.136719,142.170441 
	C1916.703125,138.529388 1896.761230,141.171539 1878.174927,151.026810 
	C1873.905273,153.290802 1869.955444,156.158005 1865.245850,159.134827 
	C1863.721191,156.197021 1862.114868,153.102081 1860.281494,149.702576 
M1947.957153,254.548950 
	C1965.781250,243.346039 1968.857056,234.995743 1966.615234,213.016342 
	C1947.532104,213.016342 1928.488403,212.420242 1909.512573,213.293777 
	C1901.296265,213.671997 1893.256470,217.357025 1888.952148,225.476578 
	C1881.698486,239.159637 1888.531250,254.041245 1904.118652,258.803223 
	C1918.761475,263.276703 1933.425171,261.969696 1947.957153,254.548950 
z"/>
<path fill="#89BED8" opacity="1.000000" stroke="none" 
	d="
M86.257004,138.572296 
	C91.918411,117.561966 104.953873,103.771545 125.459099,98.537560 
	C142.813797,94.107742 159.389481,97.342545 173.121521,109.756943 
	C178.092255,114.250717 182.677551,119.306297 186.749405,124.632507 
	C197.361465,138.513657 211.863434,142.219299 228.156769,140.735382 
	C242.021667,139.472672 252.472809,132.263855 261.357086,121.470581 
	C270.772034,110.032593 281.922241,100.618668 297.307861,97.239548 
	C326.442963,90.840645 356.166534,110.626205 361.107483,139.323563 
	C364.248810,157.568466 360.038605,173.839203 347.317780,186.877914 
	C331.221863,203.375961 308.623077,207.882004 287.560242,198.529709 
	C280.653900,195.463165 274.622650,190.082550 268.759705,185.092239 
	C260.597260,178.144684 254.249680,169.175690 244.085266,164.454910 
	C230.373581,158.086594 201.895889,159.467896 189.893402,173.428391 
	C183.655426,180.684006 177.066544,187.919357 169.523010,193.714981 
	C151.474472,207.581512 126.255890,207.149902 107.934967,194.283859 
	C92.300201,183.304245 85.231766,167.675980 85.057236,148.805984 
	C85.026955,145.531982 85.740280,142.251114 86.257004,138.572296 
z"/>
<path fill="#1C3664" opacity="1.000000" stroke="none" 
	d="
M2065.000000,188.000000 
	C2065.000000,172.865570 2065.000000,158.231140 2065.000000,143.150696 
	C2054.689209,143.150696 2044.620605,143.150696 2034.279907,143.150696 
	C2034.279907,130.979752 2034.279907,119.252670 2034.279907,107.076035 
	C2044.388794,107.076035 2054.456055,107.076035 2064.959961,107.076035 
	C2064.959961,92.906639 2064.959961,79.175049 2064.959961,65.225769 
	C2079.796875,65.225769 2094.188965,65.225769 2108.849609,65.225769 
	C2108.849609,79.043144 2108.849609,92.652931 2108.849609,106.705261 
	C2125.168213,106.705261 2141.231445,106.705261 2157.645996,106.705261 
	C2157.645996,118.867546 2157.645996,130.596741 2157.645996,142.772095 
	C2141.763916,142.772095 2125.700439,142.772095 2109.000000,142.772095 
	C2109.000000,144.964737 2109.000000,146.723541 2109.000000,148.482330 
	C2109.000000,175.799118 2109.131592,203.116745 2108.957031,230.432419 
	C2108.823730,251.320236 2123.743408,260.279938 2141.663818,255.987854 
	C2147.544189,254.579483 2153.187256,252.181961 2158.962158,250.228882 
	C2162.167480,258.440643 2165.529297,267.672211 2169.410889,276.679718 
	C2170.875000,280.077240 2170.300537,282.141235 2167.404297,283.880371 
	C2158.078369,289.480560 2147.990967,291.987000 2137.128174,293.258484 
	C2124.087891,294.784882 2111.711914,293.141785 2099.647217,288.912994 
	C2079.780273,281.949463 2068.245850,267.173920 2066.317383,246.695282 
	C2064.502686,227.426376 2065.333252,207.908401 2065.000000,188.000000 
z"/>
<path fill="#1C3664" opacity="1.000000" stroke="none" 
	d="
M1508.020386,106.000000 
	C1518.485840,106.000000 1528.453613,106.000000 1538.863770,106.000000 
	C1538.863770,113.976486 1538.863770,121.692841 1538.863770,131.073410 
	C1556.506104,109.502686 1578.902588,102.978706 1604.643677,104.075600 
	C1604.643677,118.014282 1604.643677,131.891190 1604.643677,145.779327 
	C1584.220947,142.879135 1565.684326,146.351700 1551.756104,163.989990 
	C1545.232788,172.251068 1542.154297,182.434494 1542.078125,193.022263 
	C1541.857178,223.667572 1542.000000,254.315506 1542.000000,284.962402 
	C1542.000000,286.772736 1542.000000,288.583099 1542.000000,290.695801 
	C1527.030518,290.695801 1512.304810,290.695801 1497.288574,290.695801 
	C1497.288574,229.351135 1497.288574,167.980667 1497.288574,106.000000 
	C1500.653931,106.000000 1504.088379,106.000000 1508.020386,106.000000 
z"/>
<path fill="#FFFFFF" opacity="1.000000" stroke="none" 
	d="
M2303.904541,212.000000 
	C2306.041748,212.000000 2307.691406,212.000000 2309.309326,212.000000 
	C2312.814453,234.587906 2307.266602,247.766464 2284.126953,257.246674 
	C2269.703369,263.155945 2254.782227,263.373230 2240.652832,255.817749 
	C2232.116943,251.253174 2228.080078,243.698242 2229.011963,233.850952 
	C2229.747070,226.080612 2233.587402,218.575592 2243.056396,216.066757 
	C2250.054199,214.212631 2257.268799,212.518890 2264.454590,212.175262 
	C2277.415283,211.555481 2290.427002,212.000000 2303.904541,212.000000 
z"/>
<path fill="#FFFFFF" opacity="1.000000" stroke="none" 
	d="
M1770.000000,206.703796 
	C1767.145386,226.590561 1757.972168,241.870926 1739.917358,250.470398 
	C1712.261719,263.642548 1676.677979,252.206421 1665.830688,221.471710 
	C1658.282837,200.085556 1659.998779,179.558395 1673.592529,161.197296 
	C1681.800903,150.110123 1693.571289,143.861771 1707.573608,141.923523 
	C1722.634766,139.838684 1736.184082,142.870010 1748.516113,151.844864 
	C1759.763062,160.029984 1766.446411,171.119415 1768.835938,184.534866 
	C1770.096558,191.613159 1769.666626,198.992554 1770.000000,206.703796 
z"/>
<path fill="#FFFFFF" opacity="1.000000" stroke="none" 
	d="
M1164.128662,141.960541 
	C1178.763306,143.438644 1190.134399,149.947342 1199.012573,161.026764 
	C1209.071533,173.579514 1212.043823,188.305618 1210.865234,203.736420 
	C1208.931519,229.051178 1195.235962,249.281860 1168.025146,254.744492 
	C1139.021606,260.567017 1110.902344,244.332199 1104.084961,213.158539 
	C1100.548218,196.987061 1102.023438,181.153122 1110.812744,166.699341 
	C1119.333984,152.686401 1131.812866,144.191025 1148.185303,142.097244 
	C1153.274170,141.446487 1158.511108,141.952774 1164.128662,141.960541 
z"/>
<path fill="#FFFFFF" opacity="1.000000" stroke="none" 
	d="
M1365.000000,183.000000 
	C1351.676636,182.985672 1338.853394,182.974136 1326.030029,182.938950 
	C1325.743774,182.938171 1325.458374,182.668289 1325.173828,182.521301 
	C1329.484009,154.516769 1353.074341,137.244507 1380.520508,139.167740 
	C1407.880249,141.084946 1425.365234,159.819382 1427.902466,183.000000 
	C1407.070190,183.000000 1386.285156,183.000000 1365.000000,183.000000 
z"/>
<path fill="#FFFFFF" opacity="1.000000" stroke="none" 
	d="
M631.210327,255.327576 
	C616.672974,261.734650 602.193115,263.343750 587.260315,258.081818 
	C576.694763,254.358826 569.783752,245.550949 570.937927,232.780060 
	C571.711609,224.219513 579.068359,216.150894 589.481384,214.108139 
	C595.535461,212.920502 601.764465,212.214127 607.930725,212.091766 
	C622.384644,211.804932 636.848145,212.000000 651.284546,212.000000 
	C653.909729,230.947540 651.949646,243.140823 631.210327,255.327576 
z"/>
<path fill="#FFFFFF" opacity="1.000000" stroke="none" 
	d="
M1947.635620,254.753281 
	C1933.425171,261.969696 1918.761475,263.276703 1904.118652,258.803223 
	C1888.531250,254.041245 1881.698486,239.159637 1888.952148,225.476578 
	C1893.256470,217.357025 1901.296265,213.671997 1909.512573,213.293777 
	C1928.488403,212.420242 1947.532104,213.016342 1966.615234,213.016342 
	C1968.857056,234.995743 1965.781250,243.346039 1947.635620,254.753281 
z"/>
</svg>
