<?xml version="1.0" encoding="utf-8"?>
<svg xmlns="http://www.w3.org/2000/svg" viewBox="-704.8843 93.9523 2353 301.9061" width="2353px" height="301.906px" preserveAspectRatio="none"><g id="Layer_1" transform="matrix(1, 0, 0, 1, 78.84571838378908, 64.33634948730469)" style="opacity: 0.08;"><path fill="#231F20" opacity="1.000000" stroke="none" d="M -783.73 267.085 C -783.06 265.455 -782.13 264.371 -781.76 263.121 C -776.32 244.693 -760.03 228.881 -740.73 225.51 C -722.18 222.272 -706.3 227.228 -692.53 239.477 C -689.04 242.584 -686.29 246.595 -683.49 250.407 C -675.98 260.656 -666.34 266.478 -653.38 267.914 C -639.73 269.428 -627.41 267.36 -617.03 258.244 C -609.87 251.959 -603.49 244.795 -596.7 238.097 C -585.27 226.835 -571.09 222.587 -555.58 223.773 C -537.53 225.152 -524.06 234.872 -513.72 249.408 C -505.35 261.18 -494.05 267.59 -479.33 267.65 C -467.14 267.7 -455.57 266.197 -446.46 256.919 C -441.05 251.419 -435.46 246.097 -430.16 240.498 C -422.25 232.129 -412.87 226.396 -401.57 223.985 C -377.38 218.825 -350.46 231.005 -340.69 256.327 C -333.67 274.534 -335.7 291.735 -346.81 307.52 C -356.72 321.589 -370.64 328.848 -388 329.678 C -403.56 330.421 -416.63 324.823 -427.95 314.752 C -432.61 310.599 -436.36 305.428 -440.86 301.065 C -449.81 292.382 -460.3 287.564 -473.15 287.466 C -484.24 287.381 -494.68 288.956 -503.58 295.719 C -508.4 299.385 -512.8 303.832 -516.63 308.552 C -525.57 319.6 -536.37 327.227 -550.62 329.645 C -569.79 332.899 -585.96 327.431 -599.4 313.474 C -604.49 308.196 -609.38 302.619 -615.06 298.055 C -622.19 292.327 -630.44 289.261 -639.93 288.375 C -652.49 287.204 -663.8 289.629 -673.84 296.782 C -678.93 300.4 -683.51 305.062 -687.35 310.007 C -697.11 322.573 -709.52 329.764 -725.58 331.227 C -730.09 331.616 -734.44 331.616 -739.38 331.253 C -741.02 330.469 -742.03 329.909 -743.11 329.648 C -761.78 325.152 -773.85 313.388 -780.73 295.787 C -781.45 293.953 -782.72 292.335 -783.73 290.616 C -783.73 290.616 -783.73 290.116 -783.39 289.777 C -783.28 288.498 -783.5 287.557 -783.73 286.616 C -783.73 280.262 -783.73 273.907 -783.73 267.085 Z" style="stroke-width: 1;"/><path fill="#231F20" opacity="1.000000" stroke="none" d="M 1569.27 319.148 C 1555.47 319.616 1541.66 319.616 1527.31 319.616 C 1527.31 313.217 1527.31 307.027 1527.31 299.83 C 1523.06 303.414 1519.69 306.394 1516.18 309.182 C 1507.14 316.357 1496.51 319.464 1485.26 320.552 C 1478.22 321.233 1471.09 321.808 1464.03 321.517 C 1443.82 320.68 1425.68 314.596 1411.99 298.772 C 1405.71 291.518 1402.56 282.946 1401.1 273.374 C 1399.66 263.87 1400.8 254.958 1404.12 246.171 C 1410.63 228.907 1423.96 219.497 1441.05 214.644 C 1455.43 210.56 1470.19 210.376 1485 210.578 C 1498.29 210.76 1511.57 210.616 1524.83 210.616 C 1526.45 188.521 1513.07 172.558 1491.96 169.516 C 1472.94 166.774 1455.06 170.275 1437.81 177.899 C 1433.58 179.767 1429.96 182.986 1425.92 185.334 C 1425 185.866 1422.66 185.805 1422.36 185.252 C 1416.87 175.384 1411.6 165.399 1406.31 155.428 C 1406.17 155.168 1406.29 154.772 1406.29 154.223 C 1422.18 142.569 1440.17 135.921 1459.69 133.731 C 1471.45 132.411 1483.4 131.216 1495.16 131.868 C 1512.52 132.83 1529.5 136.575 1543.65 147.758 C 1556.55 157.958 1564.11 171.54 1567.25 187.612 C 1567.81 190.484 1568.09 193.412 1568.88 196.465 C 1569.27 237.304 1569.27 277.991 1569.27 319.148 M 1487.85 239.616 C 1478.53 240.878 1469.18 241.909 1459.91 243.468 C 1450.59 245.034 1444.84 254.801 1444.26 261.297 C 1443.29 272.031 1448.05 279.773 1457.25 284.524 C 1469.03 290.607 1481.53 290.28 1494.13 287.238 C 1503.01 285.096 1510.59 280.587 1516.97 274.248 C 1526.76 264.523 1525.98 252.208 1524.91 239.616 C 1512.75 239.616 1500.79 239.616 1487.85 239.616 Z" style="stroke-width: 1;"/><path fill="#231F20" opacity="1.000000" stroke="none" d="M -551.2 29.616 C -543.08 33.432 -535.12 36.736 -527.85 41.184 C -516.97 47.85 -511.79 58.927 -508.93 70.705 C -505.82 83.566 -507.5 96.494 -514.01 108.065 C -523.69 125.239 -538.49 134.656 -558.58 135.704 C -574.94 136.557 -589.02 131.362 -599.97 119.646 C -617.92 100.428 -619.83 74.296 -605.36 52.106 C -597.65 40.276 -586.08 33.069 -571.86 29.988 C -565.04 29.616 -558.35 29.616 -551.2 29.616 Z" style="stroke-width: 1;"/><path fill="#FFFFFF" opacity="1.000000" stroke="none" d="M -783.73 286.991 C -783.5 287.557 -783.28 288.498 -783.39 289.527 C -783.73 288.866 -783.73 288.116 -783.73 286.991 Z" style="stroke-width: 1;"/><path fill="#231F20" opacity="1.000000" stroke="none" d="M 75.387 319.616 C 73.458 319.616 72.016 319.616 70.271 319.616 C 70.271 317.307 70.271 315.506 70.271 313.706 C 70.271 279.548 70.602 245.385 70.087 211.235 C 69.911 199.617 67.089 187.904 57.173 180.358 C 51.575 176.097 44.75 172.15 37.984 171.026 C 27.743 169.324 17.055 170.069 7.312 175.058 C -7.24 182.51 -14.753 195.071 -16.521 210.672 C -17.896 222.8 -17.606 235.14 -17.685 247.388 C -17.837 271.213 -17.729 295.041 -17.729 319.242 C -32.197 319.242 -46.599 319.242 -61.366 319.242 C -61.366 257.797 -61.366 196.072 -61.366 133.981 C -47.911 133.981 -34.176 133.981 -19.9 133.981 C -19.9 140.246 -19.9 146.785 -19.9 154.972 C -1.571 137.222 19.614 130.896 43.224 131.623 C 67.178 132.361 87.527 140.464 101.893 160.757 C 107.117 156.299 111.906 151.53 117.356 147.699 C 129.714 139.013 143.38 133.955 158.641 132.429 C 173.531 130.939 187.853 131.777 202.109 136.501 C 222.298 143.192 235.18 157.005 242.163 176.59 C 245.843 186.913 247.366 197.69 247.322 208.736 C 247.183 243.727 247.271 278.718 247.271 313.71 C 247.271 315.513 247.271 317.317 247.271 319.362 C 232.558 319.362 218.159 319.362 203.271 319.362 C 203.271 317.51 203.271 315.732 203.271 313.953 C 203.271 280.629 203.371 247.303 203.206 213.979 C 203.16 204.654 200.848 195.661 196.203 187.527 C 190.381 177.332 180.949 171.966 169.645 170.781 C 157.843 169.543 146.17 170.633 135.857 177.688 C 124.745 185.29 118.339 196.056 116.453 209.03 C 114.897 219.734 114.481 230.664 114.362 241.502 C 114.079 267.315 114.271 293.132 114.271 319.616 C 101.376 319.616 88.625 319.616 75.387 319.616 Z" style="stroke-width: 1;"/><path fill="#231F20" opacity="1.000000" stroke="none" d="M 834.272 203.748 C 837.105 190.931 841.811 179.422 849.186 168.956 C 862.81 149.621 881.554 138.265 904.404 133.784 C 913.032 132.092 922.056 131.494 930.855 131.784 C 948.192 132.354 964.407 136.869 977.871 148.669 C 979.919 150.463 982.183 152.01 985.045 154.207 C 985.045 123.036 985.045 92.561 985.045 61.853 C 1000.02 61.853 1014.41 61.853 1029.04 61.853 C 1029.04 147.69 1029.04 233.398 1029.04 319.361 C 1014.89 319.361 1000.83 319.361 986.344 319.361 C 986.344 312.251 986.344 305.198 986.344 298.627 C 979.699 303.313 973.332 308.285 966.5 312.504 C 956.955 318.398 946.03 320.638 935.099 321.478 C 909.022 323.482 884.78 317.708 864.232 300.894 C 848.061 287.661 838.22 270.06 834.495 249.627 C 832.563 239.028 832.679 228.015 832.398 217.176 C 832.287 212.865 833.604 208.517 834.272 203.748 M 879.206 209.078 C 876.102 219.707 875.953 230.57 878.423 241.173 C 881.829 255.795 889.178 267.891 902.714 275.844 C 914.818 282.956 927.428 284.844 941.121 282.696 C 955.544 280.433 966.774 273.155 975.183 261.643 C 983.473 250.294 985.936 237.218 985.344 223.277 C 984.611 205.98 978.572 191.467 964.754 180.6 C 950.041 169.028 933.415 166.901 915.852 171.56 C 896.725 176.634 884.843 189.405 879.206 209.078 Z" style="stroke-width: 1;"/><path fill="#231F20" opacity="1.000000" stroke="none" d="M 374.32 321.616 C 351.793 321.157 332.504 314.072 316.478 297.308 C 316.478 305.012 316.478 312.032 316.478 319.33 C 302.288 319.33 288.553 319.33 274.543 319.33 C 274.543 233.609 274.543 147.88 274.543 61.883 C 288.959 61.883 303.36 61.883 318.101 61.883 C 318.101 92.36 318.101 122.79 318.101 154.314 C 321.417 151.764 324.073 149.833 326.607 147.754 C 337.577 138.757 350.347 134.473 364.245 132.535 C 379.94 130.346 395.26 131.696 410.182 136.639 C 440.63 146.724 459.786 168.057 467.898 198.555 C 470.966 210.09 471.637 222.704 470.986 234.695 C 469.586 260.471 459.897 283.163 439.942 300.232 C 426.154 312.027 409.834 318.944 391.562 320.592 C 385.993 321.094 380.395 321.283 374.32 321.616 M 361.833 282.617 C 368.494 282.619 375.21 283.18 381.803 282.515 C 399.74 280.706 411.941 270.045 420.036 254.887 C 426.565 242.662 427.589 229.223 425.347 215.443 C 422.832 199.987 415.924 187.569 402.88 178.511 C 389.812 169.436 375.498 167.873 360.418 170.658 C 342.238 174.016 329.521 184.836 322.485 201.521 C 317.328 213.75 316.512 226.75 319.141 240.09 C 323.412 261.769 339.242 278.325 361.833 282.617 Z" style="stroke-width: 1;"/><path fill="#231F20" opacity="1.000000" stroke="none" d="M 523.023 158.364 C 536.949 144.957 552.985 136.786 571.824 133.484 C 595.395 129.351 618.018 131.438 639.188 142.712 C 663.388 155.599 677.906 176.108 683.177 202.939 C 684.806 211.233 685.538 219.735 686.151 228.18 C 686.431 232.04 685.426 235.993 684.958 240.332 C 637.118 240.332 589.049 240.332 540.925 240.332 C 543.628 260.214 558.412 275.93 579.028 281.308 C 597.067 286.014 615.364 285.5 632.346 276.484 C 638.608 273.159 644.161 268.498 650.383 264.208 C 657.422 272.214 665.049 280.733 672.375 289.503 C 672.985 290.232 672.052 293.096 671.021 294.221 C 659.229 307.071 644.344 314.482 627.601 318.64 C 614.505 321.892 601.143 322.472 587.875 321.471 C 559.947 319.365 535.472 309.212 516.795 287.565 C 507.122 276.354 500.933 263.102 498.482 248.61 C 496.737 238.295 495.893 227.59 496.502 217.167 C 497.557 199.113 503.671 182.466 514.609 167.852 C 517.063 164.573 520.037 161.684 523.023 158.364 M 625.769 210.616 C 631.564 210.616 637.358 210.616 643.193 210.616 C 640.641 188.187 622.19 169.841 599.245 167.645 C 564.801 164.348 544.153 185.969 540.456 210.241 C 540.766 210.356 541.075 210.571 541.385 210.571 C 569.18 210.597 596.975 210.606 625.769 210.616 Z" style="stroke-width: 1;"/><path fill="#231F20" opacity="1.000000" stroke="none" d="M -209.64 319.618 C -218.32 316.094 -227.15 313.512 -234.69 308.846 C -247.34 301.022 -254.65 289.291 -256.89 274.144 C -259.07 259.346 -256.51 245.89 -247.54 234.126 C -238.92 222.81 -226.9 216.186 -212.99 213.75 C -203.37 212.065 -193.54 211.025 -183.78 210.748 C -166.98 210.272 -150.16 210.616 -133.37 210.616 C -132.12 192.356 -140.07 175.515 -160.62 170.812 C -186.43 164.904 -210.58 170.001 -232.2 185.639 C -234.27 187.135 -235.08 186.854 -236.21 184.697 C -240.87 175.849 -245.69 167.085 -250.46 158.294 C -251.83 155.774 -252.25 154.259 -248.99 152.092 C -233.6 141.864 -216.75 135.754 -198.54 133.729 C -186.94 132.44 -175.19 131.415 -163.56 131.817 C -145.69 132.437 -128.5 136.896 -114.11 148.036 C -102.19 157.258 -94.873 169.743 -91.621 184.717 C -88.939 197.064 -88.687 209.471 -88.71 221.974 C -88.769 254.287 -88.729 286.6 -88.729 319.265 C -102.57 319.265 -116.31 319.265 -130.44 319.265 C -130.44 313.088 -130.44 306.68 -130.44 299.807 C -135.66 303.971 -140.19 308.115 -145.23 311.477 C -153.43 316.933 -162.71 319.761 -172.48 320.554 C -180.37 321.194 -188.31 321.566 -196.22 321.504 C -200.55 321.469 -204.88 320.287 -209.64 319.618 M -194.62 287.242 C -187.13 288.673 -179.78 289.863 -171.96 288.776 C -157.85 286.813 -146.54 280.708 -137.67 269.568 C -130.38 260.408 -133.39 249.976 -132.72 239.616 C -145.4 239.616 -157.54 239.24 -169.65 239.74 C -178.74 240.115 -187.9 241.024 -196.81 242.801 C -204.11 244.259 -210.27 248.644 -212.64 256.174 C -217.04 270.13 -210.12 282.63 -194.62 287.242 Z" style="stroke-width: 1;"/><path fill="#231F20" opacity="1.000000" stroke="none" d="M 1157.86 317.376 C 1144.65 321.757 1131.34 322.604 1118.08 321.462 C 1100.1 319.914 1083.36 314.576 1070.76 300.563 C 1063.06 291.991 1058.78 281.911 1058.24 270.255 C 1057.63 257.03 1059.74 244.75 1068.15 233.895 C 1073.82 226.578 1080.82 221.033 1089.21 217.791 C 1102.17 212.779 1115.76 210.429 1129.77 210.574 C 1147.08 210.752 1164.38 210.616 1181.65 210.616 C 1184.37 192.925 1174.38 174.788 1154.4 170.658 C 1128.19 165.237 1104.17 170.631 1082.34 186.036 C 1081.95 186.305 1081.49 186.455 1080.56 186.903 C 1074.85 176.376 1069.17 165.921 1062.84 154.253 C 1069.66 150.359 1076.12 145.754 1083.25 142.806 C 1097.03 137.114 1111.41 133.779 1126.44 132.401 C 1146.63 130.551 1166.43 131.357 1185.27 138.817 C 1203.65 146.091 1216.87 159.214 1222.1 178.783 C 1224.34 187.185 1225.98 196.017 1226.09 204.676 C 1226.52 240.994 1226.27 277.321 1226.27 313.644 C 1226.27 315.453 1226.27 317.261 1226.27 319.339 C 1212.61 319.339 1199.21 319.339 1185.4 319.339 C 1185.4 312.619 1185.4 305.894 1185.4 297.826 C 1177.91 307.924 1168.67 313.44 1157.86 317.376 M 1136.73 289.616 C 1148.47 288.617 1159.69 286.149 1169.27 278.638 C 1175.31 273.895 1180.55 268.146 1181.99 260.731 C 1183.29 254.043 1182.27 246.902 1182.27 239.619 C 1167.69 239.619 1153.56 239.171 1139.47 239.795 C 1131.63 240.142 1123.64 241.533 1116.11 243.759 C 1101.06 248.205 1096.47 266.913 1107.37 279.185 C 1114.96 287.74 1125.49 288.433 1136.73 289.616 Z" style="stroke-width: 1;"/><path fill="#231F20" opacity="1.000000" stroke="none" d="M -423.69 167.583 C -421.44 178.215 -422.4 188.177 -426.37 197.73 C -433.93 215.893 -447.73 227.323 -466.88 230.293 C -482.71 232.749 -498.17 229.973 -510.67 218.207 C -518.74 210.605 -526.46 202.476 -535.28 195.852 C -550.02 184.797 -576.15 186.09 -590.07 197.681 C -596.03 202.645 -600.82 209.001 -606.26 214.613 C -613.99 222.592 -623.17 228.363 -634.1 230.509 C -649.72 233.578 -664.6 231.461 -677.6 221.586 C -689.17 212.794 -696.7 201.506 -698.81 186.712 C -701.48 167.903 -696.14 151.933 -682.47 139.009 C -674.33 131.312 -664.48 126.898 -653.09 125.507 C -634.14 123.192 -618.6 129.274 -605.83 143.067 C -601.16 148.12 -596.96 153.629 -592.17 158.564 C -585.66 165.264 -577.36 168.124 -568.13 168.631 C -556.16 169.289 -544.5 168.266 -534.73 160.518 C -529.56 156.412 -524.64 151.769 -520.47 146.66 C -512.64 137.061 -503.41 129.86 -491.36 126.565 C -460.65 118.161 -432.09 134.464 -423.76 165.144 C -423.59 165.766 -423.73 166.471 -423.69 167.583 Z" style="stroke-width: 1;"/><path fill="#231F20" opacity="1.000000" stroke="none" d="M 1375.25 280.754 C 1378.96 290.381 1382.66 299.616 1386.44 309.072 C 1377.88 315.367 1368.46 319.112 1358.05 320.645 C 1344.91 322.58 1331.87 322.249 1319.11 318.559 C 1298.73 312.661 1283.37 296.884 1281.55 275.418 C 1279.91 256.123 1280.5 236.631 1280.3 217.224 C 1280.14 201.912 1280.27 186.597 1280.27 170.863 C 1270.06 170.863 1259.99 170.863 1249.6 170.863 C 1249.6 158.718 1249.6 146.985 1249.6 134.829 C 1259.52 134.829 1269.59 134.829 1280.07 134.829 C 1280.07 120.685 1280.07 106.949 1280.07 92.917 C 1294.88 92.917 1309.28 92.917 1324.1 92.917 C 1324.1 106.575 1324.1 120.311 1324.1 134.459 C 1340.58 134.459 1356.64 134.459 1372.99 134.459 C 1372.99 146.603 1372.99 158.335 1372.99 170.486 C 1356.94 170.486 1340.87 170.486 1324.27 170.486 C 1324.27 172.499 1324.27 174.104 1324.27 175.708 C 1324.27 204.026 1324.33 232.345 1324.24 260.663 C 1324.2 273.371 1334.37 285.455 1348.11 284.832 C 1357.32 284.414 1365.81 283.096 1373.41 277.268 C 1374.13 278.495 1374.68 279.429 1375.25 280.754 Z" style="stroke-width: 1;"/><path fill="#231F20" opacity="1.000000" stroke="none" d="M 712.271 238.616 C 712.271 203.488 712.271 168.86 712.271 133.924 C 726.204 133.924 739.935 133.924 754.22 133.924 C 754.22 141.672 754.22 149.527 754.22 159.048 C 771.7 136.979 794.606 131.725 819.935 131.523 C 819.935 145.482 819.935 159.215 819.935 173.747 C 817.685 173.374 815.424 172.751 813.14 172.656 C 787.638 171.591 762.961 183.474 758.256 214.424 C 757.841 217.156 757.319 219.912 757.313 222.658 C 757.246 253.14 757.271 283.623 757.271 314.106 C 757.271 315.751 757.271 317.396 757.271 319.325 C 742.304 319.325 727.574 319.325 712.271 319.325 C 712.271 292.617 712.271 265.867 712.271 238.616 Z" style="stroke-width: 1;"/></g></svg>
